<svg xmlns="http://www.w3.org/2000/svg" width="15.955" height="23" viewBox="0 0 15.955 23"><defs><style>.a{fill:#fff;}</style></defs><g transform="translate(2)"><path class="a" d="M7.978,23h0a53.143,53.143,0,0,1-3.988-5.232C2.169,15.04,0,11.139,0,8.05A8.045,8.045,0,0,1,2.322,2.343,7.9,7.9,0,0,1,7.978,0a7.9,7.9,0,0,1,5.656,2.343A8.045,8.045,0,0,1,15.955,8.05c0,3.089-2.169,6.99-3.989,9.718A53.144,53.144,0,0,1,7.978,23Zm0-17.825A2.832,2.832,0,0,0,5.128,8.05a2.85,2.85,0,1,0,5.7,0A2.832,2.832,0,0,0,7.978,5.175Z" transform="translate(-2)"/></g></svg>