<svg xmlns="http://www.w3.org/2000/svg" width="35" height="35" viewBox="0 0 35 35"><defs><style>.a,.b{fill:#fff;}.a{opacity:0;}</style></defs><g transform="translate(-32 -10)"><g transform="translate(-113 -212)"><rect class="a" width="35" height="35" transform="translate(145 222)"/></g><g transform="translate(34.883 12.706)"><path class="b" d="M26.711,22.715a11.571,11.571,0,0,1-2.016-2.355,10.155,10.155,0,0,1-1.084-3.866v-3.97a8.686,8.686,0,0,0-7.582-8.639V2.848a1.072,1.072,0,1,0-2.144,0V3.9a8.686,8.686,0,0,0-7.493,8.623v3.97A10.155,10.155,0,0,1,5.307,20.36a11.571,11.571,0,0,1-1.984,2.355.8.8,0,0,0-.273.6V24.41a.8.8,0,0,0,.8.8H26.181a.8.8,0,0,0,.8-.8V23.317A.8.8,0,0,0,26.711,22.715Zm-21.99.892A12.994,12.994,0,0,0,6.68,21.2a11.45,11.45,0,0,0,1.325-4.7v-3.97a7.02,7.02,0,1,1,14.031,0v3.97a11.45,11.45,0,0,0,1.325,4.7,12.994,12.994,0,0,0,1.96,2.411Z" transform="translate(0 0)"/><path class="b" d="M17.46,33.821A2.132,2.132,0,0,0,19.521,32h-4.2a2.132,2.132,0,0,0,2.14,1.821Z" transform="translate(-2.404 -5.939)"/></g></g></svg>