<svg xmlns="http://www.w3.org/2000/svg" width="23.821" height="22.143" viewBox="0 0 23.821 22.143"><defs><style>.a{opacity:0.998;}.b{fill:none;stroke:#626262;stroke-linecap:round;stroke-linejoin:round;stroke-miterlimit:10;stroke-width:2px;}</style></defs><g class="a" transform="translate(1 1)"><path class="b" d="M13.428,16.785H1.679A1.679,1.679,0,0,1,0,15.107V0H15.107V15.107A1.679,1.679,0,0,1,13.428,16.785Z" transform="translate(3.357 3.357)"/><path class="b" d="M.4,6.714V0" transform="translate(7.993 8.393)"/><path class="b" d="M.4,6.714V0" transform="translate(13.028 8.393)"/><path class="b" d="M0,.4H21.821" transform="translate(0 2.957)"/><path class="b" d="M6.714,0H1.679A1.679,1.679,0,0,0,0,1.679V3.357H8.393V1.679A1.679,1.679,0,0,0,6.714,0Z" transform="translate(6.714)"/></g></svg>