<svg xmlns="http://www.w3.org/2000/svg" width="50" height="50" viewBox="0 0 50 50"><defs><style>.a{fill:#fbcd4f;}</style></defs><path class="a" d="M25,50A25,25,0,1,1,50,25,25.029,25.029,0,0,1,25,50ZM25,1.667A23.333,23.333,0,1,0,48.334,25,23.36,23.36,0,0,0,25,1.667Z"/><path class="a" d="M10,15.834a3.33,3.33,0,0,1-3.215-2.5H.833a.833.833,0,1,1,0-1.667H6.785A3.33,3.33,0,0,1,9.167,9.285V.833a.833.833,0,1,1,1.667,0V9.285A3.326,3.326,0,0,1,10,15.834Zm0-5A1.667,1.667,0,1,0,11.667,12.5,1.669,1.669,0,0,0,10,10.833Z" transform="translate(15 12.399)"/><path class="a" d="M.833,2.5a.833.833,0,0,0,.833-.833V.833A.833.833,0,0,0,0,.833v.833A.833.833,0,0,0,.833,2.5Z" transform="translate(24.167 5.733)"/><path class="a" d="M.833,0A.833.833,0,0,0,0,.833v.833a.833.833,0,1,0,1.667,0V.833A.833.833,0,0,0,.833,0Z" transform="translate(24.167 41.566)"/><path class="a" d="M1.667,0H.833a.833.833,0,0,0,0,1.667h.833A.833.833,0,1,0,1.667,0Z" transform="translate(41.667 24.066)"/><path class="a" d="M1.667,0H.833a.833.833,0,0,0,0,1.667h.833A.833.833,0,1,0,1.667,0Z" transform="translate(5.833 24.066)"/><path class="a" d="M.834.244.244.833A.833.833,0,1,0,1.423,2.012l.589-.589A.833.833,0,0,0,.834.244Z" transform="translate(36.541 11.102)"/><path class="a" d="M.834.244.244.833A.833.833,0,1,0,1.423,2.012l.589-.589A.833.833,0,0,0,.834.244Z" transform="translate(11.203 36.44)"/><path class="a" d="M1.423.244A.833.833,0,0,0,.244,1.423l.589.589A.833.833,0,0,0,2.012.834Z" transform="translate(36.541 36.44)"/><path class="a" d="M1.423.244A.833.833,0,0,0,.244,1.423l.589.589A.833.833,0,0,0,2.012.834Z" transform="translate(11.203 11.101)"/></svg>