<svg xmlns="http://www.w3.org/2000/svg" width="24" height="16" viewBox="0 0 24 16"><defs><style>.a{fill:#c7c7c7;}</style></defs><path class="a" d="M12,67.333a4.623,4.623,0,0,0-1.3.208,2.308,2.308,0,0,1,.3,1.125A2.333,2.333,0,0,1,8.667,71a2.308,2.308,0,0,1-1.125-.3A4.655,4.655,0,1,0,12,67.333Zm11.855,4.058A13.364,13.364,0,0,0,12,64,13.366,13.366,0,0,0,.146,71.392a1.348,1.348,0,0,0,0,1.216A13.364,13.364,0,0,0,12,80a13.366,13.366,0,0,0,11.855-7.392,1.348,1.348,0,0,0,0-1.216ZM12,78a11.335,11.335,0,0,1-9.914-6A11.334,11.334,0,0,1,12,66a11.334,11.334,0,0,1,9.914,6c-1.089,1.984-4.817,4.75-4.817,4.75A18.838,18.838,0,0,1,12,78Z" transform="translate(-0.001 -64)"/></svg>