<svg xmlns="http://www.w3.org/2000/svg" width="17.175" height="11.808" viewBox="0 0 17.175 11.808"><defs><style>.a{fill:#626262;fill-rule:evenodd;}</style></defs><g transform="translate(0 -5.625)"><path class="a" d="M17.175,11.529s-3.22-5.9-8.587-5.9S0,11.529,0,11.529s3.22,5.9,8.587,5.9S17.175,11.529,17.175,11.529Zm-15.916,0a14.1,14.1,0,0,0,1.782,2.193,8,8,0,0,0,5.546,2.637,8,8,0,0,0,5.547-2.637,14.1,14.1,0,0,0,1.782-2.193,14.1,14.1,0,0,0-1.782-2.193A8.007,8.007,0,0,0,8.587,6.7,8,8,0,0,0,3.04,9.336a14.1,14.1,0,0,0-1.782,2.193Z" transform="translate(0 0)"/><path class="a" d="M13.882,11.2a2.684,2.684,0,1,0,2.684,2.684A2.684,2.684,0,0,0,13.882,11.2Zm-3.757,2.684a3.757,3.757,0,1,1,3.757,3.757A3.757,3.757,0,0,1,10.125,13.882Z" transform="translate(-5.295 -2.353)"/></g></svg>