<svg xmlns="http://www.w3.org/2000/svg" width="35" height="35" viewBox="0 0 35 35"><defs><style>.a{fill:#fff;opacity:0;}.b{fill:none;stroke:#a0a0a0;stroke-width:1.6px;}</style></defs><g transform="translate(-145 -222)"><rect class="a" width="35" height="35" transform="translate(145 222)"/><path class="b" d="M27.082,12.2l-.031-.212-.031.008a5.456,5.456,0,0,0-6.073-4.438,5.627,5.627,0,0,0-4.658,6.026,5.54,5.54,0,0,0,5.421,5.282,5.117,5.117,0,0,0,.785-.082,4.686,4.686,0,0,1-.307.859,5.387,5.387,0,0,1-.567,1.066,6.238,6.238,0,0,1-.725.93,8.193,8.193,0,0,1-.835.763,5.13,5.13,0,0,1-.862.585,4.492,4.492,0,0,1-.785.442l-.65.28-.572.248.584,2.449.72-.182c.23-.061.512-.131.831-.216a6.309,6.309,0,0,0,1.065-.394,7.319,7.319,0,0,0,1.241-.59,11.276,11.276,0,0,0,1.317-.874,9.621,9.621,0,0,0,1.268-1.192,8.833,8.833,0,0,0,1.1-1.467,10.4,10.4,0,0,0,.847-1.64,14.324,14.324,0,0,0,.565-1.687,15.893,15.893,0,0,0,.464-3.077,16.461,16.461,0,0,0-.034-2.206q-.026-.342-.076-.68ZM13.8,12.2l-.031-.212-.031.008A5.456,5.456,0,0,0,7.668,7.556a5.627,5.627,0,0,0-4.658,6.026,5.54,5.54,0,0,0,5.421,5.282,5.117,5.117,0,0,0,.785-.082,4.686,4.686,0,0,1-.307.859,5.387,5.387,0,0,1-.567,1.066,6.238,6.238,0,0,1-.725.93,8.192,8.192,0,0,1-.835.763,5.13,5.13,0,0,1-.862.585,4.492,4.492,0,0,1-.785.442l-.65.28c-.364.155-.571.246-.571.246L4.5,26.4l.72-.182c.23-.061.512-.131.831-.216a6.31,6.31,0,0,0,1.065-.394,7.319,7.319,0,0,0,1.241-.59,11.276,11.276,0,0,0,1.317-.874,9.621,9.621,0,0,0,1.268-1.192,8.833,8.833,0,0,0,1.1-1.467,10.4,10.4,0,0,0,.847-1.64,14.324,14.324,0,0,0,.565-1.687,15.893,15.893,0,0,0,.464-3.077,16.461,16.461,0,0,0-.034-2.206q-.027-.341-.077-.679Z" transform="translate(147.478 223.204)"/></g></svg>