<svg xmlns="http://www.w3.org/2000/svg" width="35" height="35" viewBox="0 0 35 35"><defs><style>.a{fill:#fff;opacity:0;}.b{fill:#2e2e2e;}</style></defs><g transform="translate(-145 -222)"><rect class="a" width="35" height="35" transform="translate(145 222)"/><g transform="translate(148.82 223.93)"><path class="b" d="M14.679,6.273c3.617,0,6.575.061,9.312.183h.077a2.551,2.551,0,0,1,2.326,2.719v.061L26.4,9.3c.128,1.884.188,3.839.188,5.811s-.061,3.927-.188,5.811l-.006.061v.061a2.934,2.934,0,0,1-.742,2,2.143,2.143,0,0,1-1.584.742h-.089c-2.931.139-6.027.21-9.217.21h-.587c-3.2,0-6.3-.072-9.206-.2H4.88a3.63,3.63,0,0,1-2.172-.771,2.961,2.961,0,0,1-.742-2v-.061l-.006-.061c-.133-1.889-.194-3.844-.183-5.8v-.011c-.006-1.955.055-3.905.183-5.794l.006-.061V9.168a3.036,3.036,0,0,1,2.914-2.7h.077c2.742-.128,5.7-.183,9.317-.183h.4m0-1.784h-1c-3.191,0-6.326.044-9.395.183a4.31,4.31,0,0,0-4.093,4.5C.055,11.17-.006,13.141,0,15.119s.05,3.949.188,5.927a4.325,4.325,0,0,0,4.093,4.52q4.553.216,9.295.21h1.2q4.745,0,9.3-.21a4.326,4.326,0,0,0,4.1-4.52q.2-2.966.188-5.932c.006-1.977-.055-3.949-.188-5.932a4.3,4.3,0,0,0-4.1-4.492C21,4.544,17.875,4.5,14.679,4.5Z"/><path class="b" d="M14.555,21.546V11.067L22.9,16.306Z" transform="translate(-3.263 -1.194)"/></g></g></svg>