<svg xmlns="http://www.w3.org/2000/svg" width="80" height="80" viewBox="0 0 80 80"><defs><style>.a{fill:#fff;}.b{fill:#dedede;}.c{fill:#fbcd4f;}.d{fill:#f0be36;}</style></defs><g transform="translate(-1807 -643.5)"><rect class="a" width="80" height="80" rx="2" transform="translate(1807 643.5)"/><path class="b" d="M2,0H78a2,2,0,0,1,2,2V29.241a0,0,0,0,1,0,0H0a0,0,0,0,1,0,0V2A2,2,0,0,1,2,0Z" transform="translate(1807 643.5)"/><rect class="c" width="14.521" height="10.216" transform="translate(1821.492 681.601)"/><rect class="d" width="6.094" height="3.407" transform="translate(1821.492 706.364)"/><g transform="translate(1821.492 694.189)"><path class="b" d="M56.167,212.681h0Z" transform="translate(-56.167 -212.259)"/><rect class="b" width="14.521" height="0.844" transform="translate(0)"/></g><g transform="translate(1821.492 695.937)"><path class="b" d="M56.167,217.889h0Z" transform="translate(-56.167 -217.467)"/><rect class="b" width="14.521" height="0.844" transform="translate(0)"/></g><g transform="translate(1821.492 697.685)"><path class="b" d="M56.167,223.1h0Z" transform="translate(-56.167 -222.675)"/><rect class="b" width="14.521" height="0.844" transform="translate(0)"/></g><g transform="translate(1821.492 699.432)"><path class="b" d="M56.167,228.3h0Z" transform="translate(-56.167 -227.882)"/><rect class="b" width="14.521" height="0.844" transform="translate(0)"/></g><g transform="translate(1821.492 701.18)"><path class="b" d="M56.167,233.512h0Z" transform="translate(-56.167 -233.09)"/><rect class="b" width="14.521" height="0.844" transform="translate(0)"/></g><g transform="translate(1821.492 702.928)"><path class="b" d="M56.167,238.719h0Z" transform="translate(-56.167 -238.297)"/><rect class="b" width="14.521" height="0.844" transform="translate(0)"/></g><rect class="c" width="14.521" height="10.216" transform="translate(1839.739 681.601)"/><rect class="d" width="6.094" height="3.407" transform="translate(1839.739 706.364)"/><g transform="translate(1839.739 694.189)"><path class="b" d="M56.167,212.681h0Z" transform="translate(-56.167 -212.259)"/><rect class="b" width="14.521" height="0.844" transform="translate(0)"/></g><g transform="translate(1839.739 695.937)"><path class="b" d="M56.167,217.889h0Z" transform="translate(-56.167 -217.467)"/><rect class="b" width="14.521" height="0.844" transform="translate(0)"/></g><g transform="translate(1839.739 697.685)"><path class="b" d="M56.167,223.1h0Z" transform="translate(-56.167 -222.675)"/><rect class="b" width="14.521" height="0.844" transform="translate(0)"/></g><g transform="translate(1839.739 699.432)"><path class="b" d="M56.167,228.3h0Z" transform="translate(-56.167 -227.882)"/><rect class="b" width="14.521" height="0.844" transform="translate(0)"/></g><g transform="translate(1839.739 701.18)"><path class="b" d="M56.167,233.512h0Z" transform="translate(-56.167 -233.09)"/><rect class="b" width="14.521" height="0.844" transform="translate(0)"/></g><g transform="translate(1839.739 702.928)"><path class="b" d="M56.167,238.719h0Z" transform="translate(-56.167 -238.297)"/><rect class="b" width="14.521" height="0.844" transform="translate(0)"/></g><rect class="c" width="14.521" height="10.216" transform="translate(1857.987 681.601)"/><rect class="d" width="6.094" height="3.407" transform="translate(1857.987 706.364)"/><g transform="translate(1857.987 694.189)"><path class="b" d="M56.167,212.681h0Z" transform="translate(-56.167 -212.259)"/><rect class="b" width="14.521" height="0.844" transform="translate(0)"/></g><g transform="translate(1857.987 695.937)"><path class="b" d="M56.167,217.889h0Z" transform="translate(-56.167 -217.467)"/><rect class="b" width="14.521" height="0.844" transform="translate(0)"/></g><g transform="translate(1857.987 697.685)"><path class="b" d="M56.167,223.1h0Z" transform="translate(-56.167 -222.675)"/><rect class="b" width="14.521" height="0.844" transform="translate(0)"/></g><g transform="translate(1857.987 699.432)"><path class="b" d="M56.167,228.3h0Z" transform="translate(-56.167 -227.882)"/><rect class="b" width="14.521" height="0.844" transform="translate(0)"/></g><g transform="translate(1857.987 701.18)"><path class="b" d="M56.167,233.512h0Z" transform="translate(-56.167 -233.09)"/><rect class="b" width="14.521" height="0.844" transform="translate(0)"/></g><g transform="translate(1857.987 702.928)"><path class="b" d="M56.167,238.719h0Z" transform="translate(-56.167 -238.297)"/><rect class="b" width="14.521" height="0.844" transform="translate(0)"/></g></g></svg>