<svg xmlns="http://www.w3.org/2000/svg" width="98" height="74" viewBox="0 0 98 74"><defs><style>.a{fill:#4c4c4c;opacity:0.997;}.b{fill:#a0a0a0;}</style></defs><g transform="translate(-215 -557)"><rect class="a" width="98" height="74" rx="2" transform="translate(215 557)"/><g transform="translate(286 565)"><rect class="b" width="19" height="13"/></g><g transform="translate(265 565)"><rect class="b" width="19" height="13"/></g><g transform="translate(244 565)"><rect class="b" width="19" height="13"/></g><g transform="translate(223 565)"><rect class="b" width="19" height="13"/></g><g transform="translate(286 595)"><rect class="b" width="19" height="13"/></g><g transform="translate(265 595)"><rect class="b" width="19" height="13"/></g><g transform="translate(244 595)"><rect class="b" width="19" height="13"/></g><g transform="translate(223 595)"><rect class="b" width="19" height="13"/></g><g transform="translate(286 580)"><rect class="b" width="19" height="13"/></g><g transform="translate(265 580)"><rect class="b" width="19" height="13"/></g><g transform="translate(244 580)"><rect class="b" width="19" height="13"/></g><g transform="translate(223 580)"><rect class="b" width="19" height="13"/></g><g transform="translate(286 610)"><rect class="b" width="19" height="13"/></g><g transform="translate(265 610)"><rect class="b" width="19" height="13"/></g><g transform="translate(244 610)"><rect class="b" width="19" height="13"/></g><g transform="translate(223 610)"><rect class="b" width="19" height="13"/></g></g></svg>