<svg xmlns="http://www.w3.org/2000/svg" xmlns:xlink="http://www.w3.org/1999/xlink" width="27.5" height="27.5" viewBox="0 0 27.5 27.5"><defs><style>.a{fill:#d69e02;}.b{fill:#fff;}.c{clip-path:url(#a);}</style><clipPath id="a"><rect class="a" width="20.846" height="17.758"/></clipPath></defs><g transform="translate(-1654 -783.154)"><rect class="b" width="27.5" height="27.5" rx="3" transform="translate(1654 783.154)"/><g transform="translate(1657.1 788.025)"><g transform="translate(0 0)"><g transform="translate(0 0)"><g class="c"><path class="a" d="M771.5,399.048a5.454,5.454,0,0,0-10.58-.006,5.461,5.461,0,0,0,.512,10.9h2.048a.683.683,0,1,0,0-1.365h-2.048a4.1,4.1,0,1,1-.024-8.191.709.709,0,0,0,.751-.583,4.089,4.089,0,0,1,8.1,0,.737.737,0,0,0,.732.583,4.1,4.1,0,1,1,0,8.191h-2.047a.683.683,0,1,0,0,1.365h2.047a5.461,5.461,0,0,0,.512-10.891Zm0,0" transform="translate(-755.649 -394.536)"/></g><path class="a" d="M871.166,495.581a.683.683,0,0,0,.965-.965l-3.413-3.413a.682.682,0,0,0-.965,0l-3.413,3.413a.683.683,0,0,0,.965.965l2.248-2.248v8.591a.683.683,0,1,0,1.365,0v-8.591Zm0,0" transform="translate(-857.678 -485.156)"/></g></g></g></g></svg>