<svg xmlns="http://www.w3.org/2000/svg" width="80" height="80" viewBox="0 0 80 80"><defs><style>.a{fill:#fff;}.b{fill:#dedede;}.c{fill:#fbcd4f;}.d{fill:#f0be36;}</style></defs><g transform="translate(-1637 -644)"><rect class="a" width="80" height="80" rx="1.577" transform="translate(1717 644) rotate(90)"/><rect class="b" width="47.54" height="29.241" transform="translate(1652.615 644)"/><rect class="c" width="20.523" height="10.216" transform="translate(1652.739 682.101)"/><rect class="d" width="8.613" height="3.407" transform="translate(1652.739 706.864)"/><g transform="translate(1652.739 694.689)"><path class="b" d="M56.167,212.681h0Z" transform="translate(-56.167 -212.259)"/><rect class="b" width="20.523" height="0.844" transform="translate(0)"/></g><g transform="translate(1652.739 696.437)"><path class="b" d="M56.167,217.889h0Z" transform="translate(-56.167 -217.467)"/><rect class="b" width="20.523" height="0.844" transform="translate(0)"/></g><g transform="translate(1652.739 698.185)"><path class="b" d="M56.167,223.1h0Z" transform="translate(-56.167 -222.675)"/><rect class="b" width="20.523" height="0.844" transform="translate(0)"/></g><g transform="translate(1652.739 699.932)"><path class="b" d="M56.167,228.3h0Z" transform="translate(-56.167 -227.882)"/><rect class="b" width="20.523" height="0.844" transform="translate(0)"/></g><g transform="translate(1652.739 701.68)"><path class="b" d="M56.167,233.512h0Z" transform="translate(-56.167 -233.09)"/><rect class="b" width="20.523" height="0.844" transform="translate(0)"/></g><g transform="translate(1652.739 703.428)"><path class="b" d="M56.167,238.719h0Z" transform="translate(-56.167 -238.297)"/><rect class="b" width="20.523" height="0.844" transform="translate(0)"/></g><rect class="c" width="20.523" height="10.216" transform="translate(1679.633 682.101)"/><rect class="d" width="8.613" height="3.407" transform="translate(1679.633 706.864)"/><g transform="translate(1679.633 694.689)"><path class="b" d="M56.167,212.681h0Z" transform="translate(-56.167 -212.259)"/><rect class="b" width="20.523" height="0.844" transform="translate(0)"/></g><g transform="translate(1679.633 696.437)"><path class="b" d="M56.167,217.889h0Z" transform="translate(-56.167 -217.467)"/><rect class="b" width="20.523" height="0.844" transform="translate(0)"/></g><g transform="translate(1679.633 698.185)"><path class="b" d="M56.167,223.1h0Z" transform="translate(-56.167 -222.675)"/><rect class="b" width="20.523" height="0.844" transform="translate(0)"/></g><g transform="translate(1679.633 699.932)"><path class="b" d="M56.167,228.3h0Z" transform="translate(-56.167 -227.882)"/><rect class="b" width="20.523" height="0.844" transform="translate(0)"/></g><g transform="translate(1679.633 701.68)"><path class="b" d="M56.167,233.512h0Z" transform="translate(-56.167 -233.09)"/><rect class="b" width="20.523" height="0.844" transform="translate(0)"/></g><g transform="translate(1679.633 703.428)"><path class="b" d="M56.167,238.719h0Z" transform="translate(-56.167 -238.297)"/><rect class="b" width="20.523" height="0.844" transform="translate(0)"/></g></g></svg>