<svg xmlns="http://www.w3.org/2000/svg" width="80" height="80" viewBox="0 0 80 80"><defs><style>.a{fill:#fff;}.b{fill:#dedede;}.c{fill:#fbcd4f;}.d{fill:#f0be36;}</style></defs><g transform="translate(-1722 -643.5)"><rect class="a" width="80" height="80" rx="2" transform="translate(1722 643.5)"/><path class="b" d="M2,0H78a2,2,0,0,1,2,2V29.241a0,0,0,0,1,0,0H0a0,0,0,0,1,0,0V2A2,2,0,0,1,2,0Z" transform="translate(1722 644)"/><rect class="c" width="20.523" height="10.216" transform="translate(1725.95 681.601)"/><rect class="d" width="8.613" height="3.407" transform="translate(1725.95 706.364)"/><g transform="translate(1725.95 694.189)"><path class="b" d="M56.167,212.681h0Z" transform="translate(-56.167 -212.259)"/><rect class="b" width="20.523" height="0.844" transform="translate(0)"/></g><g transform="translate(1725.95 695.937)"><path class="b" d="M56.167,217.889h0Z" transform="translate(-56.167 -217.467)"/><rect class="b" width="20.523" height="0.844" transform="translate(0)"/></g><g transform="translate(1725.95 697.685)"><path class="b" d="M56.167,223.1h0Z" transform="translate(-56.167 -222.675)"/><rect class="b" width="20.523" height="0.844" transform="translate(0)"/></g><g transform="translate(1725.95 699.432)"><path class="b" d="M56.167,228.3h0Z" transform="translate(-56.167 -227.882)"/><rect class="b" width="20.523" height="0.844" transform="translate(0)"/></g><g transform="translate(1725.95 701.18)"><path class="b" d="M56.167,233.512h0Z" transform="translate(-56.167 -233.09)"/><rect class="b" width="20.523" height="0.844" transform="translate(0)"/></g><g transform="translate(1725.95 702.928)"><path class="b" d="M56.167,238.719h0Z" transform="translate(-56.167 -238.297)"/><rect class="b" width="20.523" height="0.844" transform="translate(0)"/></g><rect class="c" width="20.523" height="10.216" transform="translate(1751.739 681.601)"/><rect class="d" width="8.613" height="3.407" transform="translate(1751.739 706.364)"/><g transform="translate(1751.739 694.189)"><path class="b" d="M56.167,212.681h0Z" transform="translate(-56.167 -212.259)"/><rect class="b" width="20.523" height="0.844" transform="translate(0)"/></g><g transform="translate(1751.739 695.937)"><path class="b" d="M56.167,217.889h0Z" transform="translate(-56.167 -217.467)"/><rect class="b" width="20.523" height="0.844" transform="translate(0)"/></g><g transform="translate(1751.739 697.685)"><path class="b" d="M56.167,223.1h0Z" transform="translate(-56.167 -222.675)"/><rect class="b" width="20.523" height="0.844" transform="translate(0)"/></g><g transform="translate(1751.739 699.432)"><path class="b" d="M56.167,228.3h0Z" transform="translate(-56.167 -227.882)"/><rect class="b" width="20.523" height="0.844" transform="translate(0)"/></g><g transform="translate(1751.739 701.18)"><path class="b" d="M56.167,233.512h0Z" transform="translate(-56.167 -233.09)"/><rect class="b" width="20.523" height="0.844" transform="translate(0)"/></g><g transform="translate(1751.739 702.928)"><path class="b" d="M56.167,238.719h0Z" transform="translate(-56.167 -238.297)"/><rect class="b" width="20.523" height="0.844" transform="translate(0)"/></g><rect class="c" width="20.523" height="10.216" transform="translate(1777.527 681.601)"/><rect class="d" width="8.613" height="3.407" transform="translate(1777.527 706.364)"/><g transform="translate(1777.527 694.189)"><path class="b" d="M56.167,212.681h0Z" transform="translate(-56.167 -212.259)"/><rect class="b" width="20.523" height="0.844" transform="translate(0)"/></g><g transform="translate(1777.527 695.937)"><path class="b" d="M56.167,217.889h0Z" transform="translate(-56.167 -217.467)"/><rect class="b" width="20.523" height="0.844" transform="translate(0)"/></g><g transform="translate(1777.527 697.685)"><path class="b" d="M56.167,223.1h0Z" transform="translate(-56.167 -222.675)"/><rect class="b" width="20.523" height="0.844" transform="translate(0)"/></g><g transform="translate(1777.527 699.432)"><path class="b" d="M56.167,228.3h0Z" transform="translate(-56.167 -227.882)"/><rect class="b" width="20.523" height="0.844" transform="translate(0)"/></g><g transform="translate(1777.527 701.18)"><path class="b" d="M56.167,233.512h0Z" transform="translate(-56.167 -233.09)"/><rect class="b" width="20.523" height="0.844" transform="translate(0)"/></g><g transform="translate(1777.527 702.928)"><path class="b" d="M56.167,238.719h0Z" transform="translate(-56.167 -238.297)"/><rect class="b" width="20.523" height="0.844" transform="translate(0)"/></g></g></svg>