<svg xmlns="http://www.w3.org/2000/svg" width="23.993" height="17.994" viewBox="0 0 23.993 17.994"><defs><style>.a{fill:#fff;}</style></defs><path class="a" d="M24.583,8H3.41A1.41,1.41,0,0,0,2,9.41V24.585a1.41,1.41,0,0,0,1.41,1.41H24.583a1.41,1.41,0,0,0,1.41-1.41V9.41A1.41,1.41,0,0,0,24.583,8ZM6.918,12.086a2.249,2.249,0,1,1-2.249,2.249,2.249,2.249,0,0,1,2.249-2.249ZM22.994,23H5l5.593-5.6a.532.532,0,0,1,.75,0L14.1,20.154l3.8-3.906a.532.532,0,0,1,.75,0l4.341,4.341Z" transform="translate(-2 -8)"/></svg>