<svg xmlns="http://www.w3.org/2000/svg" width="23.198" height="23.198" viewBox="0 0 23.198 23.198"><defs><style>.a{fill:#fbcd4f;}</style></defs><path class="a" d="M8.916,10.918H2a2,2,0,0,1-2-2V2A2,2,0,0,1,2,0H8.916a2,2,0,0,1,2,2V8.916A2,2,0,0,1,8.916,10.918ZM5.459,1.864A3.594,3.594,0,1,0,9.052,5.459,3.6,3.6,0,0,0,5.459,1.864ZM9.169.908a.85.85,0,1,0,.85.85A.851.851,0,0,0,9.169.908Z" transform="translate(6.141 6.172)"/><path class="a" d="M2.075,0A2.075,2.075,0,1,0,4.151,2.075,2.078,2.078,0,0,0,2.075,0Z" transform="translate(9.524 9.556)"/><path class="a" d="M11.6,23.2A11.6,11.6,0,1,1,23.2,11.6,11.612,11.612,0,0,1,11.6,23.2ZM8.143,4.653a3.524,3.524,0,0,0-3.52,3.52v6.915a3.524,3.524,0,0,0,3.52,3.52h6.914a3.524,3.524,0,0,0,3.52-3.52V8.173a3.524,3.524,0,0,0-3.52-3.52Z" transform="translate(0 0)"/></svg>