<svg xmlns="http://www.w3.org/2000/svg" width="23.996" height="19.497" viewBox="0 0 23.996 19.497"><defs><style>.a{fill:#fff;fill-rule:evenodd;}</style></defs><path class="a" d="M11.647,3.464a.75.75,0,0,1,.7,0l11.249,6a.75.75,0,0,1,0,1.323l-11.249,6a.75.75,0,0,1-.7,0L.4,10.786a.75.75,0,0,1,0-1.323l11.249-6Z" transform="translate(-0.002 -3.376)"/><path class="a" d="M3.188,19.276.4,20.764a.75.75,0,0,0,0,1.323l11.249,6a.75.75,0,0,0,.7,0l11.249-6a.75.75,0,0,0,0-1.323l-2.79-1.488L13.056,23.41a2.25,2.25,0,0,1-2.115,0l.627-1.177-.629,1.177L3.188,19.276Z" transform="translate(-0.002 -8.677)"/></svg>