<svg xmlns="http://www.w3.org/2000/svg" width="23.835" height="26.984" viewBox="0 0 23.835 26.984"><defs><style>.a,.b{fill:#2e2e2e;stroke:#fff;stroke-width:0.6px;}.b{fill-rule:evenodd;}</style></defs><g transform="translate(-2.7 -1.2)"><path class="a" d="M9,8.573A1.154,1.154,0,0,1,10.221,7.5H22.433a1.154,1.154,0,0,1,1.221,1.073,1.154,1.154,0,0,1-1.221,1.073H10.221A1.154,1.154,0,0,1,9,8.573Z" transform="translate(-1.71 -1.152)"/><path class="a" d="M9,14.573A1.154,1.154,0,0,1,10.221,13.5H22.433a1.154,1.154,0,0,1,1.221,1.073,1.154,1.154,0,0,1-1.221,1.073H10.221A1.154,1.154,0,0,1,9,14.573Z" transform="translate(-1.71 -2.305)"/><path class="a" d="M10.221,19.5a1.082,1.082,0,1,0,0,2.145H22.433a1.082,1.082,0,1,0,0-2.145Z" transform="translate(-1.71 -3.457)"/><path class="a" d="M9,26.573A1.073,1.073,0,0,1,10.073,25.5h4.29a1.073,1.073,0,1,1,0,2.145h-4.29A1.073,1.073,0,0,1,9,26.573Z" transform="translate(-1.2 -4.609)"/><path class="b" d="M3,5.1A3.543,3.543,0,0,1,6.485,1.5H22.75a3.543,3.543,0,0,1,3.485,3.6V24.286a3.543,3.543,0,0,1-3.485,3.6H6.485A3.543,3.543,0,0,1,3,24.286ZM6.485,3.9H22.75a1.181,1.181,0,0,1,1.162,1.2V24.286a1.181,1.181,0,0,1-1.162,1.2H6.485a1.181,1.181,0,0,1-1.162-1.2V5.1A1.181,1.181,0,0,1,6.485,3.9Z" transform="translate(0 0)"/></g></svg>