<svg xmlns="http://www.w3.org/2000/svg" width="12.158" height="14.636" viewBox="0 0 12.158 14.636"><defs><style>.a{fill:#fff;fill-rule:evenodd;}</style></defs><path class="a" d="M14.623,7.574H13.261s.012-2.028,0-2.28A2.641,2.641,0,0,0,10.574,2.85a2.7,2.7,0,0,0-2.7,2.7V7.574h6.749A2.025,2.025,0,0,1,16.648,9.6l-.011,4.513a2.025,2.025,0,0,1-2.025,2.025h-8.1a2.025,2.025,0,0,1-2.025-2.025L4.5,9.6A2.025,2.025,0,0,1,6.525,7.574h0V5.549A4.049,4.049,0,0,1,10.574,1.5a3.842,3.842,0,0,1,4.039,3.755c0-.114.011,2.113.011,2.319Zm0,1.35h-8.1A.675.675,0,0,0,5.85,9.6l-.011,4.513a.675.675,0,0,0,.675.675h8.1a.675.675,0,0,0,.675-.675L15.3,9.6A.675.675,0,0,0,14.623,8.923Z" transform="translate(-4.49 -1.5)"/></svg>