<svg xmlns="http://www.w3.org/2000/svg" width="12.148" height="14.625" viewBox="0 0 12.148 14.625"><defs><style>.a{fill:#fff;fill-rule:evenodd;}</style></defs><path class="a" d="M14.623,5.549h-1.35a2.7,2.7,0,1,0-5.4,0V7.574h6.749A2.025,2.025,0,0,1,16.648,9.6v4.5a2.025,2.025,0,0,1-2.025,2.025h-8.1A2.025,2.025,0,0,1,4.5,14.1V9.6A2.025,2.025,0,0,1,6.525,7.574h0V5.549a4.049,4.049,0,1,1,8.1,0Zm0,3.374h-8.1A.675.675,0,0,0,5.85,9.6v4.5a.675.675,0,0,0,.675.675h8.1A.675.675,0,0,0,15.3,14.1V9.6A.675.675,0,0,0,14.623,8.923Z" transform="translate(-4.5 -1.5)"/></svg>