<svg xmlns="http://www.w3.org/2000/svg" width="19.306" height="19.306" viewBox="0 0 19.306 19.306"><defs><style>.a{fill:#bfc4ce;}.b{fill:#fff;}</style></defs><circle class="a" cx="9.653" cy="9.653" r="9.653" transform="translate(0)"/><path class="b" d="M5.442,8.695a3.264,3.264,0,0,1-1.609-.766c-.315,1.65-.7,3.232-1.838,4.059-.352-2.494.516-4.368.919-6.357C2.228,4.475,3,2.148,4.446,2.721c1.783.705-1.544,4.3.69,4.749,2.332.469,3.284-4.046,1.838-5.514C4.884-.165.892,1.907,1.383,4.942c.12.742.886.967.306,1.991C.352,6.637-.047,5.582,0,4.176A4.5,4.5,0,0,1,4.064.04C6.582-.242,8.945.965,9.272,3.334,9.639,6.007,8.135,8.9,5.442,8.695Z" transform="translate(4.99 4.231)"/></svg>