<svg xmlns="http://www.w3.org/2000/svg" width="24.547" height="24.547" viewBox="0 0 24.547 24.547"><defs><style>.a{fill:#d69e02;}.b{fill:#fff;}</style></defs><circle class="a" cx="12.274" cy="12.274" r="12.274" transform="translate(0)"/><path class="b" d="M6.92,11.055a4.15,4.15,0,0,1-2.045-.974c-.4,2.1-.889,4.11-2.336,5.161-.447-3.172.656-5.554,1.168-8.082-.873-1.47.105-4.43,1.947-3.7,2.267.9-1.963,5.467.877,6.038,2.965.6,4.175-5.144,2.336-7.012-2.657-2.7-7.733-.061-7.108,3.8.152.943,1.127,1.23.389,2.532C.447,8.439-.06,7.1.005,5.31A5.721,5.721,0,0,1,5.167.051c3.2-.358,6.207,1.176,6.622,4.188.467,3.4-1.446,7.081-4.869,6.816Z" transform="translate(6.345 5.38)"/></svg>