<svg xmlns="http://www.w3.org/2000/svg" width="23.096" height="23.096" viewBox="0 0 23.096 23.096"><defs><style>.a{fill:#fbcd4f;}.b{fill:#1d1d1b;}</style></defs><circle class="a" cx="11.548" cy="11.548" r="11.548" transform="translate(0)"/><path class="b" d="M6.51,10.4a3.905,3.905,0,0,1-1.925-.916c-.376,1.974-.836,3.867-2.2,4.856-.421-2.984.617-5.225,1.1-7.6-.822-1.383.1-4.168,1.832-3.482C7.452,4.1,3.472,8.4,6.144,8.936c2.79.561,3.928-4.84,2.2-6.6C5.843-.2,1.067,2.281,1.654,5.912c.143.888,1.06,1.157.366,2.382C.421,7.94-.056,6.678.005,5A5.383,5.383,0,0,1,4.861.048c3.013-.337,5.84,1.106,6.231,3.94.439,3.2-1.36,6.662-4.581,6.413Z" transform="translate(5.97 5.062)"/></svg>