<svg xmlns="http://www.w3.org/2000/svg" width="22.471" height="22.493" viewBox="0 0 22.471 22.493"><defs><style>.a{fill:#fff;}</style></defs><path class="a" d="M25.163,12.537l-2.512-.75a8.735,8.735,0,0,0-.712-1.747l1.23-2.3a.457.457,0,0,0-.082-.54L21.294,5.4a.457.457,0,0,0-.54-.082L18.468,6.539a8.712,8.712,0,0,0-1.769-.75l-.75-2.482A.457.457,0,0,0,15.506,3H12.972a.457.457,0,0,0-.435.322L11.787,5.8A8.72,8.72,0,0,0,10,6.546L7.754,5.332a.457.457,0,0,0-.54.082L5.392,7.191a.457.457,0,0,0-.082.54L6.524,9.98a8.72,8.72,0,0,0-.75,1.777l-2.482.75a.457.457,0,0,0-.322.435v2.534a.457.457,0,0,0,.322.435l2.5.75a8.712,8.712,0,0,0,.75,1.747l-1.23,2.354a.457.457,0,0,0,.082.54l1.792,1.792a.457.457,0,0,0,.54.082l2.317-1.237a8.735,8.735,0,0,0,1.724.7l.75,2.527a.457.457,0,0,0,.435.322h2.534a.457.457,0,0,0,.435-.322l.75-2.534a8.72,8.72,0,0,0,1.709-.7l2.332,1.245a.457.457,0,0,0,.54-.082L23.041,21.3a.457.457,0,0,0,.082-.54l-1.245-2.324a8.72,8.72,0,0,0,.712-1.717l2.527-.75a.457.457,0,0,0,.322-.435V12.979a.457.457,0,0,0-.277-.442ZM14.239,18.37a4.124,4.124,0,1,1,4.124-4.124,4.124,4.124,0,0,1-4.124,4.124Z" transform="translate(-2.97 -3)"/></svg>