<svg xmlns="http://www.w3.org/2000/svg" width="162.664" height="23.198" viewBox="0 0 162.664 23.198"><defs><style>.a{fill:#fbcd4f;}.b{fill:#1d1d1b;}</style></defs><g transform="translate(139.568 0)"><circle class="a" cx="11.548" cy="11.548" r="11.548" transform="translate(0)"/><path class="b" d="M6.667,7.52H4.607v7.549H1.485V7.52H0V4.867H1.485V3.15A2.927,2.927,0,0,1,4.635,0L6.947.01V2.585H5.269a.635.635,0,0,0-.662.723V4.869H6.94Z" transform="translate(7.784 4.48)"/></g><g transform="translate(104.676 0)"><circle class="a" cx="11.548" cy="11.548" r="11.548" transform="translate(0)"/><path class="b" d="M13.454,1.294a5.507,5.507,0,0,1-1.585.434A2.768,2.768,0,0,0,13.083.2a5.526,5.526,0,0,1-1.753.67,2.763,2.763,0,0,0-4.7,2.518A7.836,7.836,0,0,1,.936.5,2.763,2.763,0,0,0,1.791,4.19,2.741,2.741,0,0,1,.54,3.845c0,.012,0,.023,0,.035A2.762,2.762,0,0,0,2.755,6.586a2.771,2.771,0,0,1-1.246.048A2.763,2.763,0,0,0,4.087,8.551,5.538,5.538,0,0,1,.658,9.732,5.558,5.558,0,0,1,0,9.694a7.808,7.808,0,0,0,4.231,1.24A7.8,7.8,0,0,0,12.085,3.08c0-.12,0-.239-.008-.357a5.6,5.6,0,0,0,1.378-1.429Z" transform="translate(5.815 6.978)"/></g><g transform="translate(69.784 0)"><path class="a" d="M8.916,10.918H2a2,2,0,0,1-2-2V2A2,2,0,0,1,2,0H8.916a2,2,0,0,1,2,2V8.916A2,2,0,0,1,8.916,10.918ZM5.459,1.864A3.594,3.594,0,1,0,9.052,5.459,3.6,3.6,0,0,0,5.459,1.864ZM9.169.908a.85.85,0,1,0,.85.85A.851.851,0,0,0,9.169.908Z" transform="translate(6.141 6.172)"/><path class="a" d="M2.075,0A2.075,2.075,0,1,0,4.151,2.075,2.078,2.078,0,0,0,2.075,0Z" transform="translate(9.524 9.556)"/><path class="a" d="M11.6,23.2A11.6,11.6,0,1,1,23.2,11.6,11.612,11.612,0,0,1,11.6,23.2ZM8.143,4.653a3.524,3.524,0,0,0-3.52,3.52v6.915a3.524,3.524,0,0,0,3.52,3.52h6.914a3.524,3.524,0,0,0,3.52-3.52V8.173a3.524,3.524,0,0,0-3.52-3.52Z" transform="translate(0 0)"/></g><g transform="translate(34.892 0)"><circle class="a" cx="11.548" cy="11.548" r="11.548" transform="translate(0)"/><path class="b" d="M6.51,10.4a3.905,3.905,0,0,1-1.925-.916c-.376,1.974-.836,3.867-2.2,4.856-.421-2.984.617-5.225,1.1-7.6-.822-1.383.1-4.168,1.832-3.482C7.452,4.1,3.472,8.4,6.144,8.936c2.79.561,3.928-4.84,2.2-6.6C5.843-.2,1.067,2.281,1.654,5.912c.143.888,1.06,1.157.366,2.382C.421,7.94-.056,6.678.005,5A5.383,5.383,0,0,1,4.861.048c3.013-.337,5.84,1.106,6.231,3.94.439,3.2-1.36,6.662-4.581,6.413Z" transform="translate(5.97 5.062)"/></g><g transform="translate(0 0)"><circle class="a" cx="11.548" cy="11.548" r="11.548"/><path class="b" d="M7.419,8.614h.906a.765.765,0,0,0,.414-.181.663.663,0,0,0,.125-.4s-.018-1.216.547-1.4,1.271,1.175,2.028,1.7a1.435,1.435,0,0,0,1.008.307l2.025-.028s1.059-.065.557-.9a6.767,6.767,0,0,0-1.506-1.742c-1.27-1.179-1.1-.988.43-3.026.931-1.241,1.3-2,1.188-2.324-.111-.309-.8-.227-.8-.227L12.064.41a.518.518,0,0,0-.294.052.639.639,0,0,0-.2.245,13.2,13.2,0,0,1-.842,1.778C9.711,4.209,9.3,4.3,9.139,4.193c-.386-.249-.29-1-.29-1.537C8.849.985,9.1.288,8.356.108A3.893,3.893,0,0,0,7.292,0,4.914,4.914,0,0,0,5.4.2c-.259.127-.459.41-.338.426A1.023,1.023,0,0,1,5.735.96a2.2,2.2,0,0,1,.225,1.032S6.095,3.959,5.647,4.2c-.307.168-.729-.175-1.634-1.739A14.54,14.54,0,0,1,3.2.778.678.678,0,0,0,3.011.524a.945.945,0,0,0-.35-.141L.494.4S.169.405.05.547C-.057.673.041.933.041.933A24.655,24.655,0,0,0,3.658,6.9,5.2,5.2,0,0,0,7.419,8.614Z" transform="translate(3.693 7.998)"/></g></svg>