<svg xmlns="http://www.w3.org/2000/svg" width="23.99" height="23.99" viewBox="0 0 23.99 23.99"><defs><style>.a{fill:#2e2e2e;fill-rule:evenodd;}</style></defs><path class="a" d="M2.25,4.82A2.57,2.57,0,0,1,4.82,2.25H23.669a2.57,2.57,0,0,1,2.57,2.57V15.249a2.57,2.57,0,0,1-.754,1.816l-8.42,8.422a2.57,2.57,0,0,1-1.816.752H4.82a2.57,2.57,0,0,1-2.57-2.571Zm2.57-.857a.857.857,0,0,0-.857.857V23.669a.857.857,0,0,0,.857.857H15.249a.857.857,0,0,0,.6-.25l8.422-8.422a.857.857,0,0,0,.25-.6V4.82a.857.857,0,0,0-.857-.857Z" transform="translate(-2.25 -2.25)"/><path class="a" d="M20.57,19.714a.857.857,0,0,0-.857.857v8.568H18V20.57A2.57,2.57,0,0,1,20.57,18h8.568v1.714Z" transform="translate(-6.005 -6.005)"/></svg>