<svg xmlns="http://www.w3.org/2000/svg" width="24.123" height="24.123" viewBox="0 0 24.123 24.123"><defs><style>.a{fill:#a0a0a0;}</style></defs><path class="a" d="M15.75,14.625H29.534v1.723H15.75Z" transform="translate(-5.412 -5.148)"/><path class="a" d="M16.875,31.5H29.8v1.723H16.875Z" transform="translate(-5.675 -9.1)"/><path class="a" d="M26.749,27.74H28.6l-3.756-8.615H22.881L19.125,27.74h1.852l.689-1.723H26.06Zm-4.393-3.446,1.508-3.765,1.507,3.765Z" transform="translate(-6.202 -6.202)"/><path class="a" d="M26.749,10.865H28.6L24.846,2.25H22.881l-3.756,8.615h1.852l.689-1.723H26.06ZM22.356,7.419l1.508-3.765,1.507,3.765Z" transform="translate(-6.202 -2.25)"/><path class="a" d="M5.7,17.063l2.222,2.222,1.224-1.215L5.7,14.625,2.25,18.071l1.215,1.223Z" transform="translate(-2.25 -5.148)"/><path class="a" d="M5.7,29.884,3.474,27.661,2.25,28.876,5.7,32.322l3.446-3.446L7.928,27.653Z" transform="translate(-2.25 -8.199)"/></svg>