<svg xmlns="http://www.w3.org/2000/svg" width="22.509" height="20.669" viewBox="0 0 22.509 20.669"><defs><style>.a{fill:#2e2e2e;}</style></defs><g transform="translate(0 0)"><path class="a" d="M20.973,21.7l-1.133,1.141,1.841,1.841H5.329L7.17,22.843,6.037,21.7,2.25,25.488l3.787,3.787L7.17,28.133,5.329,26.291H21.681L19.84,28.132l1.133,1.141,3.786-3.786Z" transform="translate(-2.25 -8.606)"/><path class="a" d="M26.039,14.63h1.608L23.627,3.375H22.02L18,14.63h1.608l.8-2.412h4.823Zm-5.089-4.02,1.873-5.627L24.7,10.61Z" transform="translate(-6.745 -3.375)"/><path class="a" d="M12.539,3.375,9.323,13.022,6.108,3.375H4.5L8.52,14.63h1.608l4.02-11.255Z" transform="translate(-2.892 -3.375)"/></g></svg>