<svg xmlns="http://www.w3.org/2000/svg" width="23.096" height="23.096" viewBox="0 0 23.096 23.096"><defs><style>.a{fill:#fbcd4f;}.b{fill:#1d1d1b;}</style></defs><circle class="a" cx="11.548" cy="11.548" r="11.548" transform="translate(0)"/><path class="b" d="M13.454,1.294a5.507,5.507,0,0,1-1.585.434A2.768,2.768,0,0,0,13.083.2a5.526,5.526,0,0,1-1.753.67,2.763,2.763,0,0,0-4.7,2.518A7.836,7.836,0,0,1,.936.5,2.763,2.763,0,0,0,1.791,4.19,2.741,2.741,0,0,1,.54,3.845c0,.012,0,.023,0,.035A2.762,2.762,0,0,0,2.755,6.586a2.771,2.771,0,0,1-1.246.048A2.763,2.763,0,0,0,4.087,8.551,5.538,5.538,0,0,1,.658,9.732,5.558,5.558,0,0,1,0,9.694a7.808,7.808,0,0,0,4.231,1.24A7.8,7.8,0,0,0,12.085,3.08c0-.12,0-.239-.008-.357a5.6,5.6,0,0,0,1.378-1.429Z" transform="translate(5.815 6.978)"/></svg>