<svg xmlns="http://www.w3.org/2000/svg" width="19.306" height="19.306" viewBox="0 0 19.306 19.306"><defs><style>.a{fill:#bfc4ce;}.b{fill:#fff;}</style></defs><circle class="a" cx="9.653" cy="9.653" r="9.653" transform="translate(0)"/><path class="b" d="M11.246,1.082a4.6,4.6,0,0,1-1.325.363A2.314,2.314,0,0,0,10.936.169a4.619,4.619,0,0,1-1.465.56,2.309,2.309,0,0,0-3.932,2.1A6.55,6.55,0,0,1,.783.422,2.31,2.31,0,0,0,1.5,3.5,2.291,2.291,0,0,1,.452,3.214c0,.01,0,.02,0,.029A2.309,2.309,0,0,0,2.3,5.505a2.316,2.316,0,0,1-1.042.04,2.31,2.31,0,0,0,2.155,1.6A4.629,4.629,0,0,1,.55,8.135,4.646,4.646,0,0,1,0,8.1,6.527,6.527,0,0,0,3.537,9.14,6.52,6.52,0,0,0,10.1,2.575c0-.1,0-.2-.007-.3a4.679,4.679,0,0,0,1.152-1.194Z" transform="translate(4.861 5.833)"/></svg>