<svg xmlns="http://www.w3.org/2000/svg" width="24.547" height="24.547" viewBox="0 0 24.547 24.547"><defs><style>.a{fill:#d69e02;}.b{fill:#fff;}</style></defs><circle class="a" cx="12.274" cy="12.274" r="12.274" transform="translate(0)"/><path class="b" d="M14.3,1.376a5.853,5.853,0,0,1-1.685.461A2.942,2.942,0,0,0,13.9.214a5.873,5.873,0,0,1-1.863.712,2.936,2.936,0,0,0-5,2.676A8.328,8.328,0,0,1,1,.537,2.937,2.937,0,0,0,1.9,4.454,2.913,2.913,0,0,1,.574,4.086c0,.012,0,.025,0,.037A2.935,2.935,0,0,0,2.928,7,2.945,2.945,0,0,1,1.6,7.051,2.937,2.937,0,0,0,4.343,9.088,5.886,5.886,0,0,1,.7,10.344,5.907,5.907,0,0,1,0,10.3a8.3,8.3,0,0,0,4.5,1.318,8.29,8.29,0,0,0,8.347-8.347c0-.127,0-.254-.009-.379A5.949,5.949,0,0,0,14.3,1.376Z" transform="translate(6.181 7.417)"/></svg>