<svg xmlns="http://www.w3.org/2000/svg" width="19.306" height="19.306" viewBox="0 0 19.306 19.306"><defs><style>.a{fill:#bfc4ce;}.b{fill:#fff;}</style></defs><circle class="a" cx="9.653" cy="9.653" r="9.653"/><path class="b" d="M6.2,7.2h.758A.639.639,0,0,0,7.3,7.05a.554.554,0,0,0,.1-.333S7.394,5.7,7.866,5.551s1.062.983,1.7,1.417a1.2,1.2,0,0,0,.842.257L12.1,7.2s.885-.055.466-.751A5.656,5.656,0,0,0,11.3,4.994c-1.061-.985-.919-.826.359-2.53.779-1.038,1.09-1.671.993-1.943s-.665-.19-.665-.19L10.084.343a.433.433,0,0,0-.246.043.534.534,0,0,0-.168.2,11.035,11.035,0,0,1-.7,1.486C8.117,3.518,7.778,3.594,7.639,3.5,7.317,3.3,7.4,2.667,7.4,2.22c0-1.4.212-1.979-.412-2.13A3.254,3.254,0,0,0,6.1,0,4.108,4.108,0,0,0,4.514.163C4.3.27,4.13.506,4.232.52A.855.855,0,0,1,4.794.8a1.839,1.839,0,0,1,.188.862s.112,1.644-.262,1.848c-.257.14-.609-.146-1.366-1.453A12.154,12.154,0,0,1,2.674.65.566.566,0,0,0,2.517.438.79.79,0,0,0,2.224.319L.413.331S.141.339.041.457.034.78.034.78A20.61,20.61,0,0,0,3.058,5.769,4.349,4.349,0,0,0,6.2,7.2Z" transform="translate(3.087 6.686)"/></svg>