<svg xmlns="http://www.w3.org/2000/svg" width="17.5" height="20" viewBox="0 0 17.5 20"><defs><style>.a{fill:#ff808b;}</style></defs><path class="a" d="M17.5,2.857V4.643C17.5,6.217,13.581,7.5,8.75,7.5S0,6.217,0,4.643V2.857C0,1.283,3.919,0,8.75,0S17.5,1.283,17.5,2.857Zm0,4.018v4.018c0,1.574-3.919,2.857-8.75,2.857S0,12.467,0,10.893V6.875c1.88,1.295,5.321,1.9,8.75,1.9S15.62,8.17,17.5,6.875Zm0,6.25v4.018C17.5,18.717,13.581,20,8.75,20S0,18.717,0,17.143V13.125c1.88,1.295,5.321,1.9,8.75,1.9S15.62,14.42,17.5,13.125Z"/></svg>