<svg xmlns="http://www.w3.org/2000/svg" width="201.355" height="159.699" viewBox="0 0 201.355 159.699"><defs><style>.a{fill:#feecb2;}.b{fill:#fdc920;}.c{fill:#fd9f00;}.d{fill:#fe8d00;}.e{fill:#fdc000;}.f{fill:#fdb200;}</style></defs><g transform="translate(0 0)"><g transform="translate(0 32.313)"><path class="a" d="M-532.75,1690.4l-5.08-8.117-31.369,19.743a3.144,3.144,0,0,0-.988,4.319l31.21,50.17a3.1,3.1,0,0,0,4.294.994l39.862-25.088a3.145,3.145,0,0,0,.989-4.319l-26.1-41.962-7.35,4.626C-528.788,1691.707-531.81,1691.907-532.75,1690.4Z" transform="translate(570.662 -1682.28)"/><path class="b" d="M-479.5,1690.132a3.52,3.52,0,0,0,4.868,1.127l8.139-5.123-17.892-3.856Z" transform="translate(517.217 -1682.28)"/></g><g transform="translate(52.9 53.652)"><path class="c" d="M-372.079,1833.227h11.311a5.534,5.534,0,0,1,4.624,2.5l5.107,7.775a5.534,5.534,0,0,0,4.624,2.5h38.139l-3.462,37.462,5.516,8.624h-75.227a5.1,5.1,0,0,1-5.083-5.113V1838.34a5.1,5.1,0,0,1,5.083-5.113Z" transform="translate(403.7 -1797.125)"/><rect class="c" width="13.108" height="57.166" rx="6.554" transform="translate(88.873 48.881)"/><rect class="c" width="13.108" height="57.166" rx="6.554" transform="translate(84.373 48.881)"/><g transform="translate(3.249 36.102)"><path class="d" d="M-337.49,1896.578v-7.132a6.608,6.608,0,0,1,3.249-5.679v-29.282a6.058,6.058,0,0,0-6.04-6.075h-35.164a6.577,6.577,0,0,1-5.5-2.973l-6.068-9.238a6.576,6.576,0,0,0-5.5-2.972h-24.57a6.058,6.058,0,0,0-6.04,6.075V1897.1a6.058,6.058,0,0,0,6.04,6.075h82.89v-.879A6.61,6.61,0,0,1-337.49,1896.578Z" transform="translate(423.114 -1833.227)"/></g><g transform="translate(80.642)"><path class="a" d="M-162.944,1761.164l3.474-8.932-34.424-13.655a3.11,3.11,0,0,0-4.041,1.766l-21.586,55.055a3.139,3.139,0,0,0,1.755,4.065l43.744,17.352a3.109,3.109,0,0,0,4.041-1.765L-151.926,1769l-8.066-3.2C-161.639,1765.147-163.594,1762.82-162.944,1761.164Z" transform="translate(219.739 -1738.357)"/><path class="b" d="M-70.644,1783.432a3.56,3.56,0,0,0,1.99,4.609l8.933,3.543-7.544-16.769Z" transform="translate(127.534 -1760.942)"/></g><g transform="translate(0 36.102)"><path class="e" d="M-342.721,1893.012l-.057-.089v-38.437a6.058,6.058,0,0,0-6.04-6.075h-35.164a6.575,6.575,0,0,1-5.495-2.973l-6.068-9.238a6.576,6.576,0,0,0-5.5-2.972h-24.57a6.058,6.058,0,0,0-6.04,6.075v31.3a79.084,79.084,0,0,0,55.114,22.408Z" transform="translate(431.651 -1833.227)"/><path class="f" d="M-425.611,1964.013h89.387l-6.5-10.159h-33.816a79.084,79.084,0,0,1-55.114-22.408v26.492A6.058,6.058,0,0,0-425.611,1964.013Z" transform="translate(431.651 -1894.069)"/></g><path class="c" d="M-186.268,1963.636h0a6.461,6.461,0,0,0-3.306.914v9.156l.057.089v9.28a6.46,6.46,0,0,0,3.249.879h0a6.592,6.592,0,0,0,6.554-6.592v-7.133A6.593,6.593,0,0,0-186.268,1963.636Z" transform="translate(281.695 -1877.907)"/><path class="d" d="M-194.862,1975.194v-9.156a6.608,6.608,0,0,0-3.249,5.679v7.133a6.609,6.609,0,0,0,3.306,5.713v-9.28Z" transform="translate(286.984 -1879.395)"/><rect class="c" width="35.561" height="2.23" transform="translate(9.613 65.371)"/><rect class="c" width="18.803" height="2.23" transform="translate(9.613 74.548)"/></g><g transform="translate(85.81)"><path class="a" d="M-301.736,1609.338l.586-9.573-36.927-2.389a3.122,3.122,0,0,0-3.309,2.926l-3.776,59.059a3.127,3.127,0,0,0,2.909,3.328l46.926,3.036a3.122,3.122,0,0,0,3.309-2.926l3.158-49.4-8.652-.56C-299.279,1612.727-301.849,1611.115-301.736,1609.338Z" transform="translate(345.169 -1597.369)"/><path class="b" d="M-231.06,1612.907a3.546,3.546,0,0,0,3.3,3.774l9.582.62-12.289-13.637Z" transform="translate(274.488 -1601.268)"/></g></g></svg>