<svg xmlns="http://www.w3.org/2000/svg" width="112.19" height="159.699" viewBox="0 0 112.19 159.699"><defs><style>.a{fill:#feecb2;}.b{fill:#fc8d1c;}.c{fill:#fcc021;}.d{fill:#fcb220;}</style></defs><g transform="translate(-3691.508 1450.699)"><rect class="a" width="2.397" height="27" transform="translate(3746.447 -1450.699)"/><path class="a" d="M680.695,1646.342H568.5v-62.86l.541-.355,55.47-36.444,56.179,36.8Zm-109.793-2.4H678.3v-59.17l-53.781-35.226L570.9,1584.775Z" transform="translate(3123.003 -2937.342)"/><path class="b" d="M664.947,1539.027a6.9,6.9,0,0,1-6.916-6.9h2.4a4.5,4.5,0,1,0,5.913-4.28,3.842,3.842,0,0,1-2.608-3.685v-6.045h2.4v6.045a1.471,1.471,0,0,0,.959,1.408,6.9,6.9,0,0,1-1.377,13.414A7.08,7.08,0,0,1,664.947,1539.027Z" transform="translate(3082.571 -2924.441)"/><path class="b" d="M662.657,1497.6l.588,10.773a3.891,3.891,0,0,0,.986,2.383l0,0a3.888,3.888,0,0,0,5.83-.042h0a3.888,3.888,0,0,0,.953-2.419l.366-10.7-4.211,2.891Z" transform="translate(3080.482 -2915.175)"/><path class="b" d="M666.412,1496.059a5.419,5.419,0,1,1,5.419-5.419A5.425,5.425,0,0,1,666.412,1496.059Zm0-8.441a3.022,3.022,0,1,0,3.022,3.022A3.026,3.026,0,0,0,666.412,1487.619Z" transform="translate(3081.233 -2909.585)"/><rect class="a" width="2.397" height="65.724" transform="matrix(0.548, -0.837, 0.837, 0.548, 3746.947, -1388.153)"/><g transform="translate(3693.885 -1363.977)"><g transform="translate(8.641)"><rect class="c" width="20.65" height="13.099" rx="2" transform="translate(34.744)"/><rect class="c" width="20.65" height="13.099" rx="2"/><rect class="c" width="20.65" height="13.099" rx="2" transform="translate(69.489)"/></g><g transform="translate(0 10.763)"><path class="c" d="M2,0H53.71a0,0,0,0,1,0,0V62.209a0,0,0,0,1,0,0H2a2,2,0,0,1-2-2V2A2,2,0,0,1,2,0Z"/><path class="d" d="M0,0H51.71a2,2,0,0,1,2,2V60.209a2,2,0,0,1-2,2H0a0,0,0,0,1,0,0V0A0,0,0,0,1,0,0Z" transform="translate(53.71)"/></g></g></g></svg>