<svg xmlns="http://www.w3.org/2000/svg" xmlns:xlink="http://www.w3.org/1999/xlink" width="145.172" height="155" viewBox="0 0 145.172 155"><defs><style>.a{fill:none;}.b{isolation:isolate;}.c{clip-path:url(#a);}.d{fill:#fff;}.e{clip-path:url(#b);}.f{clip-path:url(#c);}.g{clip-path:url(#d);}.h{clip-path:url(#e);}.i{fill:#fbcd4f;}.j{clip-path:url(#f);}</style><clipPath id="a"><path class="a" d="M531.342,247.568,472.49,213.76l38.844-17.294,58.852,33.808Z" transform="translate(-472.49 -196.466)"/></clipPath><clipPath id="b"><path class="a" d="M629.269,211.383l-58.176-33.752,27.461-12.805,58.176,33.752Z" transform="translate(-571.094 -164.825)"/></clipPath><clipPath id="c"><path class="a" d="M606.366,388.792l.333-79.217,38.11-16.24-.334,79.217Z" transform="translate(-606.366 -293.335)"/></clipPath><clipPath id="d"><path class="a" d="M710.387,345.166l.382-79.432,32.52-14.7-.382,79.432Z" transform="translate(-710.387 -251.037)"/></clipPath><clipPath id="e"><path class="a" d="M468.079,338.292l.3-82.509,53.136,30.311-.3,82.509Z" transform="translate(-468.079 -255.784)"/></clipPath><clipPath id="f"><path class="a" d="M481.2,400.825l.468-21.677L521.622,401.7l-.468,21.677Z" transform="translate(-481.197 -379.148)"/></clipPath></defs><g transform="translate(-468.079 -164.825)"><g transform="translate(470.123 179.486)"><g transform="translate(0 0)"><g class="b"><g class="c"><g transform="translate(3.665 4.438)"><path class="d" d="M536.3,242.5a2.9,2.9,0,0,1-2.3-.264l-12.975-7.453c-.7-.4-.8-.932-.23-1.187l13.361-5.949a9.272,9.272,0,0,1,3.923-.69,19.477,19.477,0,0,1,4.82.728,20.284,20.284,0,0,1,4.767,1.976,8.9,8.9,0,0,1,3,2.553,2.984,2.984,0,0,1,.57,2.578,3.329,3.329,0,0,1-2.053,1.971L536.3,242.5m-24.613-14.058a2.691,2.691,0,0,1-2.122-.246l-12.5-7.18c-.647-.372-.741-.864-.212-1.1l11.941-5.317a8.85,8.85,0,0,1,3.592-.671,17.161,17.161,0,0,1,4.47.628,19.179,19.179,0,0,1,4.612,1.921,9.568,9.568,0,0,1,3.2,2.635,2.656,2.656,0,0,1,.5,2.4,3.269,3.269,0,0,1-1.938,1.794l-11.539,5.137m-9.142-21.034-20.1,8.95c-3.149,1.4-2.588,4.329,1.257,6.538l44.932,25.811c3.845,2.209,9.514,2.861,12.663,1.459l17.59-7.831a14.243,14.243,0,0,0,6.035-4.462,5.253,5.253,0,0,0,.574-5.453q-1.257-2.867-6.227-5.723a37.768,37.768,0,0,0-12.027-4.449,33.517,33.517,0,0,0-11.94-.177q1.571-2.56-.477-5.536a18.778,18.778,0,0,0-6.275-5.406,38.764,38.764,0,0,0-8.494-3.529,38.334,38.334,0,0,0-9.439-1.543,18.188,18.188,0,0,0-8.071,1.352" transform="translate(-480.4 -206.044)"/></g></g></g></g></g><g transform="translate(515.809 164.825)"><g transform="translate(0 0)"><g class="b"><g class="e"><g transform="translate(3.534 10.155)"><path class="d" d="M579.889,187.2c-2.036.949-1.348,3.107,1.6,4.879l44.237,26.632c3.493,2.1,8.393,2.944,10.951,1.877l20.721-8.653.117-.051c1.787-.834,1.186-2.724-1.4-4.278-2.636-1.588-6.335-2.222-8.264-1.417l-17.389,7.261-41.015-24.694c-3.008-1.811-7.227-2.534-9.423-1.616-.046.019-.09.039-.134.059" transform="translate(-578.722 -186.743)"/></g></g></g></g></g><g transform="translate(532.152 224.368)"><g class="b"><g class="f"><g transform="translate(0.041 7.828)"><path class="d" d="M617.168,379.8c-1.131.482-2.04-.759-2.031-2.771l.189-44.931c.008-2.012.932-4.034,2.062-4.516l5.474-2.332q4.2-1.789,7.132.245t4.474,7.228a45.2,45.2,0,0,1,1.51,12.888,62.515,62.515,0,0,1-1.592,14.1,36.572,36.572,0,0,1-4.52,11.285,16.109,16.109,0,0,1-7.224,6.476l-5.474,2.332m5.75-68.05-10.736,4.575c-3,1.279-5.454,6.645-5.476,11.992l-.252,59.866c-.023,5.343,2.393,8.638,5.394,7.359l10.736-4.575a27.524,27.524,0,0,0,11.648-9.865,53.805,53.805,0,0,0,7.674-17.081A85.738,85.738,0,0,0,644.69,341.9a64.593,64.593,0,0,0-2.359-18.875q-2.408-7.94-7.274-11.156t-12.139-.117" transform="translate(-606.454 -310.23)"/></g></g></g></g><g transform="translate(580.349 204.77)"><g transform="translate(0 0)"><g class="b"><g class="g"><g transform="translate(0.037 5.422)"><path class="d" d="M719.661,307.2c-.4.182-.724-.277-.721-1.022l.111-23.031a1.958,1.958,0,0,1,.733-1.675l9.33-4.216a2.457,2.457,0,0,1,2.792.41,7.878,7.878,0,0,1,2.116,3.567,19.746,19.746,0,0,1,.812,6.272,31.3,31.3,0,0,1-.754,6.816,22.4,22.4,0,0,1-1.951,5.517,6.355,6.355,0,0,1-2.779,2.983l-9.69,4.379m10.06-43.728-14.754,6.668c-2.3,1.037-4.172,5.333-4.193,9.6l-.308,63.993c-.02,4.26,1.823,6.879,4.119,5.841s4.172-5.337,4.193-9.6l.087-18.064a1.225,1.225,0,0,1,.459-1.048l7.6-3.435c.158-.071.3.015.384.226l7.4,19.355c.7,1.834,1.962,2.581,3.323,1.965,3.055-1.381,4.965-8.435,3.4-12.573l-5.8-15.346a1.56,1.56,0,0,1,.206-1.3,30.706,30.706,0,0,0,3.653-6.614,47.2,47.2,0,0,0,2.721-9.32,55.874,55.874,0,0,0,.978-10.1,40.284,40.284,0,0,0-.946-9.171,24.08,24.08,0,0,0-2.79-7.222,9.916,9.916,0,0,0-4.308-4.084,6.409,6.409,0,0,0-5.44.227" transform="translate(-710.467 -262.739)"/></g></g></g></g></g><g transform="translate(468.079 206.97)"><g transform="translate(0 0)"><g class="b"><g class="h"><g transform="translate(0.028 1.721)"><path class="i" d="M518.1,286.12l-46.235-26.374c-1.906-1.087-3.463,1.515-3.478,5.81L468.14,332.5c-.015,4.3,1.516,8.663,3.422,9.75L517.8,368.629c1.906,1.088,3.463-1.515,3.479-5.813l.244-66.949c.016-4.3-1.516-8.659-3.422-9.746" transform="translate(-468.14 -259.499)"/></g></g></g></g></g><g transform="translate(474.157 264.128)"><g transform="translate(0)"><g class="b"><g class="j"><g transform="translate(0.168 7.655)"><path class="d" d="M485.712,396.031a2.114,2.114,0,0,0-1.671-.293,2.454,2.454,0,0,0-1.292,1.023,6.2,6.2,0,0,0-.847,2.07,13.884,13.884,0,0,0-.339,2.894,18.119,18.119,0,0,0,.215,3.19,16.34,16.34,0,0,0,.744,3,10.666,10.666,0,0,0,1.217,2.451,4.972,4.972,0,0,0,1.645,1.582,1.971,1.971,0,0,0,2.172.1A3.612,3.612,0,0,0,488.9,409.9l-1.863-2.235a1.57,1.57,0,0,1-.641.943.9.9,0,0,1-.97-.014,2.269,2.269,0,0,1-.756-.77,5.613,5.613,0,0,1-.608-1.3,10.225,10.225,0,0,1-.393-1.7,11.658,11.658,0,0,1-.119-1.965,9.315,9.315,0,0,1,.192-1.789,3.938,3.938,0,0,1,.449-1.216,1.339,1.339,0,0,1,.647-.584.922.922,0,0,1,.786.1,2.479,2.479,0,0,1,.884.959,6.079,6.079,0,0,1,.62,1.666l1.914-.1a12.6,12.6,0,0,0-1.242-3.576,5.517,5.517,0,0,0-2.089-2.277" transform="translate(-481.559 -395.669)"/><path class="d" d="M502.195,418.044a2.294,2.294,0,0,1-.772-.779,5.583,5.583,0,0,1-.606-1.3,9.746,9.746,0,0,1-.387-1.688,11.65,11.65,0,0,1-.111-1.944,9.023,9.023,0,0,1,.191-1.762,4.09,4.09,0,0,1,.45-1.228,1.392,1.392,0,0,1,.647-.612.874.874,0,0,1,.787.089,2.319,2.319,0,0,1,.77.774,5.636,5.636,0,0,1,.605,1.307,9.675,9.675,0,0,1,.387,1.7,11.739,11.739,0,0,1,.111,1.932,9.169,9.169,0,0,1-.192,1.79,4.072,4.072,0,0,1-.45,1.228,1.31,1.31,0,0,1-.646.6.9.9,0,0,1-.785-.1m.271-12.566a2.119,2.119,0,0,0-1.673-.294,2.416,2.416,0,0,0-1.284,1.04,6.566,6.566,0,0,0-.84,2.09,13.851,13.851,0,0,0-.341,2.893,18.316,18.316,0,0,0,.21,3.171,16.256,16.256,0,0,0,.731,2.976,10.444,10.444,0,0,0,1.209,2.447,4.974,4.974,0,0,0,1.645,1.583,2.1,2.1,0,0,0,1.671.289,2.331,2.331,0,0,0,1.276-1.044,6.617,6.617,0,0,0,.835-2.093,13.693,13.693,0,0,0,.338-2.861,18.5,18.5,0,0,0-.207-3.2,16.607,16.607,0,0,0-.731-2.976,10.753,10.753,0,0,0-1.2-2.444,4.937,4.937,0,0,0-1.635-1.573" transform="translate(-490.556 -400.739)"/><path class="d" d="M520.586,423.437a2.535,2.535,0,0,1-.836-.827,5.807,5.807,0,0,1-.635-1.339,9.963,9.963,0,0,1-.4-1.676,10.772,10.772,0,0,1-.12-1.877,9.087,9.087,0,0,1,.182-1.678,4.877,4.877,0,0,1,.437-1.28,1.484,1.484,0,0,1,.649-.688.86.86,0,0,1,.809.073,1.944,1.944,0,0,1,.578.565,5.787,5.787,0,0,1,.55.948,8.713,8.713,0,0,1,.455,1.2,9.4,9.4,0,0,1,.3,1.371l-.079,3.662a3.142,3.142,0,0,1-.317.859,2.179,2.179,0,0,1-.457.569.987.987,0,0,1-.546.241.939.939,0,0,1-.566-.125m4.157-16.216-1.932-1.09-.189,8.728a10.628,10.628,0,0,0-1-2.727,4.079,4.079,0,0,0-1.49-1.669,1.5,1.5,0,0,0-1.368-.15,2.408,2.408,0,0,0-1.1,1.1,7.631,7.631,0,0,0-.753,2.123,15.477,15.477,0,0,0-.321,2.965,19.563,19.563,0,0,0,.2,3.27,17.4,17.4,0,0,0,.688,2.952,10.142,10.142,0,0,0,1.1,2.342,4.318,4.318,0,0,0,1.43,1.429,1.564,1.564,0,0,0,1.508.1,2.621,2.621,0,0,0,1.179-1.576l.022.994a4.119,4.119,0,0,0,.345,1.588,2.07,2.07,0,0,0,.839,1.006,2.4,2.4,0,0,0,.827.257l.072-3.339a.855.855,0,0,1-.341-.487,3.264,3.264,0,0,1-.081-.935l.364-16.874" transform="translate(-500.357 -401.284)"/><path class="d" d="M538.05,432.307a6.5,6.5,0,0,1,.228-1.446,2.938,2.938,0,0,1,.452-.961,1.12,1.12,0,0,1,.613-.437.972.972,0,0,1,.734.132,3.4,3.4,0,0,1,1.327,1.8,9.023,9.023,0,0,1,.566,3.122l-3.921-2.212m2.118-5.536a2.143,2.143,0,0,0-1.679-.3,2.423,2.423,0,0,0-1.3,1.031,6.407,6.407,0,0,0-.848,2.1,14.2,14.2,0,0,0-.34,2.937,18.029,18.029,0,0,0,.215,3.175,16.04,16.04,0,0,0,.747,2.969,10.412,10.412,0,0,0,1.215,2.422,5.022,5.022,0,0,0,1.629,1.558,2.016,2.016,0,0,0,2.21.1,3.665,3.665,0,0,0,1.4-2.132l-1.637-1.872a1.625,1.625,0,0,1-.731,1.113,1.073,1.073,0,0,1-1.1-.044,2.368,2.368,0,0,1-.715-.669,4.947,4.947,0,0,1-.6-1.113,7.826,7.826,0,0,1-.42-1.452,10.092,10.092,0,0,1-.181-1.733l5.836,3.294a5.44,5.44,0,0,0,.05-.562c.009-.233.016-.475.022-.731a18.685,18.685,0,0,0-.2-3.137,15.676,15.676,0,0,0-.725-2.957,10.812,10.812,0,0,0-1.2-2.43,4.961,4.961,0,0,0-1.637-1.574" transform="translate(-510.775 -412.165)"/><path class="d" d="M557.1,435.895a2.047,2.047,0,0,0-1.182-.311,1.471,1.471,0,0,0-.966.476,3.007,3.007,0,0,0-.663,1.241,7.528,7.528,0,0,0-.269,1.984,7.893,7.893,0,0,0,.113,1.59,5.726,5.726,0,0,0,.437,1.373,7.319,7.319,0,0,0,.818,1.338q.51.669,1.237,1.5a14.04,14.04,0,0,1,1.25,1.593,2.5,2.5,0,0,1,.363,1.42,1.334,1.334,0,0,1-.359,1.073c-.228.166-.534.143-.918-.074a4.316,4.316,0,0,1-1.292-1.25,14.507,14.507,0,0,1-1.316-2.269l-.774,2.055a10.99,10.99,0,0,0,1.519,2.638,6.546,6.546,0,0,0,1.846,1.663q1.414.8,2.264-.042a4.481,4.481,0,0,0,.9-3.1,8.359,8.359,0,0,0-.129-1.749,6.474,6.474,0,0,0-.494-1.51,8.163,8.163,0,0,0-.887-1.446q-.548-.727-1.315-1.574c-.278-.294-.506-.557-.692-.791a5.08,5.08,0,0,1-.445-.651,2.383,2.383,0,0,1-.241-.612,2.841,2.841,0,0,1-.066-.72c.013-.6.133-.983.36-1.129a.76.76,0,0,1,.831.053,3.6,3.6,0,0,1,1.065,1.017,10.979,10.979,0,0,1,1.089,1.919l.829-1.935a9.69,9.69,0,0,0-1.328-2.381,5.513,5.513,0,0,0-1.581-1.393" transform="translate(-520.208 -417.087)"/></g></g></g></g></g></g></svg>