<svg xmlns="http://www.w3.org/2000/svg" width="13.75" height="20" viewBox="0 0 13.75 20"><defs><style>.a{fill:#6dd400;}</style></defs><path class="a" d="M6.875,3.125a3.754,3.754,0,0,0-3.75,3.75.625.625,0,0,0,1.25,0,2.5,2.5,0,0,1,2.5-2.5.625.625,0,0,0,0-1.25ZM3.752,17.937a.621.621,0,0,0,.1.345l.957,1.439a.625.625,0,0,0,.52.279h3.08a.624.624,0,0,0,.52-.279l.957-1.439a.628.628,0,0,0,.1-.345l0-1.687H3.751ZM6.875,0A6.871,6.871,0,0,0,1.7,11.4,11.179,11.179,0,0,1,3.749,15v0H5.624v0a1.848,1.848,0,0,0-.084-.55,12.317,12.317,0,0,0-2.429-4.284,5,5,0,1,1,7.527,0,12.345,12.345,0,0,0-2.426,4.276A1.856,1.856,0,0,0,8.126,15v0H10v0a11.171,11.171,0,0,1,2.048-3.6A6.872,6.872,0,0,0,6.875,0Z"/></svg>