<svg xmlns="http://www.w3.org/2000/svg" xmlns:xlink="http://www.w3.org/1999/xlink" width="247" height="247" viewBox="0 0 247 247"><defs><style>.a{fill:#fbcd4f;}.b{fill:#fff;}.c{filter:url(#a);}</style><filter id="a" x="0" y="0" width="247" height="247" filterUnits="userSpaceOnUse"><feOffset dx="20" dy="20" input="SourceAlpha"/><feGaussianBlur stdDeviation="30" result="b"/><feFlood flood-opacity="0.4"/><feComposite operator="in" in2="b"/><feComposite in="SourceGraphic"/></filter></defs><g transform="translate(70 70)"><g class="c" transform="matrix(1, 0, 0, 1, -70, -70)"><rect class="a" width="67" height="67" rx="33.5" transform="translate(70 70)"/></g><g transform="translate(27 24)"><path class="b" d="M15.035,7.7,2.552.177A2.332,2.332,0,0,0,1.378,0C-.006,0,0,1.024,0,1.283V16.652c0,.219-.006,1.281,1.378,1.281a2.332,2.332,0,0,0,1.173-.175l12.483-7.519c1.025-.583.848-1.271.848-1.271S16.06,8.279,15.035,7.7Z" transform="translate(0.059 0)"/></g></g></svg>