<svg xmlns="http://www.w3.org/2000/svg" width="546" height="322" viewBox="0 0 546 322"><defs><style>.a{fill:#f0f0f0;}.b{fill:#a0a0a0;}.c{fill:#dedede;}</style></defs><g transform="translate(-737 -666)"><rect class="a" width="546" height="322" transform="translate(737 666)"/><path class="b" d="M20,0a843.082,843.082,0,0,1,86.875-5C151.375-5,198,0,198,0a20,20,0,0,1,20,20V123a20,20,0,0,1-20,20,828.978,828.978,0,0,1-86.436,5C67.064,148,20,143,20,143A20,20,0,0,1,0,123V20A20,20,0,0,1,20,0Z" transform="translate(901 753)"/><path class="c" d="M28.156,7.618a5,5,0,0,1,8.687,0L60.737,49.523A5,5,0,0,1,56.393,57H8.607a5,5,0,0,1-4.344-7.477Z" transform="translate(1050 792) rotate(90)"/></g></svg>