<svg xmlns="http://www.w3.org/2000/svg" width="1535" height="700" viewBox="0 0 1535 700"><defs><style>.a{fill:#f0f0f0;}.b{fill:#2e2e2e;font-size:40px;font-family:Roboto-Bold, Roboto;font-weight:700;}.c{fill:#d69e02;}.d{fill:#fbcd4f;}.e{font-size:20px;font-family:Roboto-Regular, Roboto;}</style></defs><g transform="translate(-192 -281)"><rect class="a" width="1535" height="700" transform="translate(192 281)"/><text class="b" transform="translate(732 713.684)"><tspan x="75.293" y="37">Build your dream</tspan></text><g transform="translate(53.664 0.894)"><g transform="matrix(0.94, -0.342, 0.342, 0.94, 980.842, 442.559)"><g transform="translate(0 0)"><path class="c" d="M0,37.645,13.5,49.02,100.025,0Z" transform="translate(22.758 5.172)"/><path class="d" d="M21.894,0,14.536,14.665l7.693,12.569L8.86,31.205,0,59.145,125.6,3.934Z"/><path class="c" d="M7.693,17.8,0,5.235,71.014,0Z" transform="translate(14.536 9.43)"/></g></g><g transform="matrix(0.966, -0.259, 0.259, 0.966, 673.336, 483.784)"><path class="c" d="M.3,2.364,0,1.357C2.926.5,4.507,0,4.51,0l.314,1S3.235,1.5.3,2.364Z" transform="translate(282.584 84.078)"/><path class="c" d="M393.133,346.731c-.148-1.772-.325-3.554-.526-5.295q-.236-2.047-.532-4.077l1.038-.152q.3,2.045.536,4.109c.2,1.752.381,3.544.528,5.328ZM390.4,328.084c-.661-3.055-1.437-6.128-2.309-9.133l1.008-.292c.878,3.028,1.661,6.125,2.327,9.2ZM385.156,310c-1.074-2.933-2.264-5.872-3.539-8.734l.959-.428c1.284,2.884,2.485,5.845,3.566,8.8Zm-7.667-17.206c-1.463-2.759-3.043-5.509-4.695-8.174l.891-.553c1.665,2.684,3.257,5.455,4.73,8.235Zm-9.932-16.013c-1.825-2.542-3.76-5.055-5.751-7.469l.81-.668c2.006,2.432,3.955,4.964,5.794,7.526Zm-11.989-14.539c-2.145-2.276-4.4-4.509-6.693-6.641l.715-.769c2.311,2.148,4.581,4.4,6.742,6.69Zm-13.81-12.826c-2.427-1.973-4.953-3.892-7.51-5.705l.607-.857c2.576,1.827,5.121,3.76,7.565,5.747Zm-15.377-10.906c-2.667-1.64-5.422-3.213-8.191-4.676l.49-.928c2.79,1.474,5.566,3.058,8.251,4.71Zm-16.67-8.807c-2.856-1.279-5.793-2.481-8.73-3.573l.366-.984c2.959,1.1,5.917,2.311,8.793,3.6Zm-17.674-6.574q-1.5-.451-3.023-.871-3.068-.848-6.073-1.745l.3-1.005q3,.892,6.053,1.738,1.53.423,3.045.877ZM273.9,217.668c-3-.991-6.007-2.041-8.949-3.117l.361-.987c2.931,1.074,5.932,2.119,8.918,3.108ZM256.1,211.153c-2.925-1.178-5.863-2.416-8.734-3.681l.423-.961c2.86,1.26,5.788,2.494,8.7,3.667Zm-17.342-7.646c-2.835-1.362-5.686-2.792-8.472-4.248l.486-.93c2.777,1.451,5.617,2.875,8.442,4.233Zm-16.8-8.779c-2.74-1.553-5.487-3.171-8.166-4.812l.549-.9c2.668,1.633,5.4,3.247,8.135,4.792Zm-16.164-9.9c-2.625-1.734-5.256-3.537-7.82-5.359l.608-.856c2.554,1.815,5.175,3.612,7.79,5.338ZM190.35,173.848c-2.493-1.9-5-3.88-7.438-5.877l.665-.813c2.432,1.99,4.926,3.961,7.409,5.855Zm-14.675-12c-2.367-2.073-4.731-4.213-7.029-6.361l.717-.767c2.29,2.141,4.646,4.273,7,6.338ZM161.828,148.9c-2.219-2.212-4.441-4.5-6.607-6.8l.765-.719c2.158,2.293,4.374,4.573,6.583,6.777Zm-13-13.8c-2.079-2.349-4.158-4.769-6.178-7.191l.807-.673c2.013,2.416,4.086,4.828,6.158,7.168Zm-12.145-14.56c-1.928-2.452-3.866-4.986-5.758-7.532l.842-.626c1.887,2.538,3.819,5.065,5.742,7.51ZM115.139,115l-.012-1.05c3.076-.038,6.256-.117,9.453-.239l.04,1.048C121.414,114.883,118.224,114.963,115.139,115Zm-9.483-.024c-3.22-.057-6.409-.165-9.479-.323l.053-1.049c3.059.157,6.236.265,9.444.322Zm28.433-.691-.065-1.047c3.087-.191,6.263-.422,9.441-.685l.087,1.045C140.368,113.862,137.184,114.094,134.09,114.285Zm-47.377-.3c-3.22-.291-6.394-.647-9.431-1.06l.142-1.041c3.023.411,6.179.766,9.383,1.056Zm66.281-1.266-.107-1.045c3.072-.314,6.233-.668,9.4-1.048l.125,1.042C159.241,112.051,156.072,112.405,152.994,112.721Zm-85.083-1.315c-3.188-.606-6.307-1.3-9.272-2.061l.262-1.017c2.943.756,6.04,1.444,9.205,2.047Zm103.9-.946-.143-1.04c3.081-.422,6.232-.878,9.365-1.355l.158,1.038C178.05,109.581,174.893,110.038,171.807,110.46Zm18.741-2.851-.173-1.036q4.716-.786,9.325-1.62l.186,1.033Q195.276,106.82,190.549,107.609Zm-141.02-.969c-3.089-1.051-6.069-2.217-8.856-3.464l.43-.958c2.758,1.234,5.706,2.388,8.765,3.43Zm75.84-1.321c-1.794-2.549-3.6-5.18-5.36-7.821l.874-.583c1.758,2.633,3.556,5.258,5.345,7.8Zm83.834-1.076-.2-1.03q4.726-.915,9.282-1.855l.212,1.029Q213.939,103.325,209.2,104.243Zm18.567-3.821-.223-1.026q4.749-1.035,9.238-2.068l.234,1.024Q232.533,99.382,227.77,100.421ZM32.214,98.814a70.041,70.041,0,0,1-7.856-5.386l.654-.822a68.715,68.715,0,0,0,7.737,5.3Zm214.031-2.637L246,95.157q4.818-1.163,9.191-2.272l.257,1.018Q251.077,95.01,246.245,96.177Zm18.378-4.65-.269-1.016c3.377-.895,6.437-1.73,9.139-2.48l.281,1.012C271.07,89.8,268.006,90.631,264.624,91.527ZM114.839,89.551c-1.661-2.617-3.341-5.329-4.993-8.059l.9-.543c1.649,2.723,3.325,5.429,4.982,8.04ZM17.377,86.936a55.2,55.2,0,0,1-5.8-7.564l.886-.564a54.041,54.041,0,0,0,5.693,7.42Zm87.641-13.6c-1.534-2.651-3.109-5.425-4.68-8.245l.918-.511c1.567,2.815,3.138,5.584,4.671,8.23ZM7.176,70.91q-.163-.39-.318-.786c-1.094-2.758-2.077-5.5-2.919-8.154l1-.318c.835,2.63,1.808,5.35,2.893,8.085q.154.387.312.77ZM95.789,56.772q-2.312-4.291-4.451-8.369l.929-.489q2.139,4.068,4.444,8.359Zm-94.3-3.993A76.4,76.4,0,0,1,.062,43.363l1.045-.089a75.478,75.478,0,0,0,1.407,9.287ZM86.953,40l-.717-1.38q-1.895-3.644-3.66-7.02l.93-.488q1.769,3.374,3.661,7.024l.717,1.38ZM1.047,33.908,0,33.824a44.43,44.43,0,0,1,1.741-9.393l1,.306A43.4,43.4,0,0,0,1.047,33.908Zm76.906-10.5a50.12,50.12,0,0,0-5.89-7.266l.751-.734a51.252,51.252,0,0,1,6.013,7.417ZM6.585,16.278,5.7,15.716a32.272,32.272,0,0,1,6.264-7.247l.683.8A31.2,31.2,0,0,0,6.585,16.278ZM64.926,10.1A51.164,51.164,0,0,0,56.8,5.464l.435-.956a52.285,52.285,0,0,1,8.292,4.729ZM20.492,4.313l-.431-.957A38.259,38.259,0,0,1,29.221.582L29.4,1.616A37.269,37.269,0,0,0,20.492,4.313ZM47.967,2.395a48.065,48.065,0,0,0-9.25-1.346L38.764,0a49.044,49.044,0,0,1,9.453,1.375Z" transform="translate(0 0)"/><path class="c" d="M1.113,3.333H.063C.063,1.747.042,1.584,0,.029L1.05,0C1.092,1.566,1.113,1.738,1.113,3.333Z" transform="translate(393.655 356.25)"/></g></g><text class="e" transform="translate(663 774)"><tspan x="19.163" y="19">Let’s start building your own website… exactly as you dreamed.</tspan></text></g></svg>