<svg xmlns="http://www.w3.org/2000/svg" width="26.657" height="16" viewBox="0 0 26.657 16"><defs><style>.a{fill:#6236ff;}</style></defs><path class="a" d="M18.106,64H14.528a1.332,1.332,0,0,0-.9.35L9.534,68.1s-.008.012-.012.017a1.657,1.657,0,0,0-.087,2.332,1.737,1.737,0,0,0,2.337.112s.012,0,.017-.008L15.115,67.5a.666.666,0,1,1,.9.983l-1.087,1L20.992,74.4a3,3,0,0,1,.329.321v-8.06l-2.274-2.274A1.323,1.323,0,0,0,18.106,64Zm4.553,2.674V76a1.331,1.331,0,0,0,1.333,1.333h2.666V66.674Zm2,9.326a.666.666,0,1,1,.666-.666A.668.668,0,0,1,24.658,76ZM0,77.329H2.666A1.331,1.331,0,0,0,4,76V66.674H0Zm2-2.662a.666.666,0,1,1-.666.666A.668.668,0,0,1,2,74.667Zm18.156.775-6.219-5.048-1.25,1.145A3,3,0,1,1,8.634,67.12L12.041,64H8.551a1.33,1.33,0,0,0-.941.392L5.331,66.666v9.326h.762L9.863,79.4a2.665,2.665,0,0,0,3.749-.387l.008-.008.746.646a1.548,1.548,0,0,0,2.178-.225l1.308-1.608.225.183a1.331,1.331,0,0,0,1.874-.2l.4-.487a1.335,1.335,0,0,0-.192-1.878Z" transform="translate(0 -64)"/></svg>