<svg xmlns="http://www.w3.org/2000/svg" width="27.497" height="21.998" viewBox="0 0 27.497 21.998"><defs><style>.a{fill:#45afff;}</style></defs><path class="a" d="M27.5,11.343v-.687a.687.687,0,0,0-.687-.687H14.78V8.249h3.093a1.375,1.375,0,0,0,1.375-1.375v-5.5A1.375,1.375,0,0,0,17.873,0H9.624A1.375,1.375,0,0,0,8.249,1.375v5.5A1.375,1.375,0,0,0,9.624,8.249h3.093V9.968H.687A.687.687,0,0,0,0,10.655v.687a.687.687,0,0,0,.687.687H5.156v1.719H2.75a1.375,1.375,0,0,0-1.375,1.375v5.5A1.375,1.375,0,0,0,2.75,22H9.624A1.375,1.375,0,0,0,11,20.623v-5.5a1.375,1.375,0,0,0-1.375-1.375H7.218V12.03H20.279v1.719H17.873A1.375,1.375,0,0,0,16.5,15.124v5.5A1.375,1.375,0,0,0,17.873,22h6.874a1.375,1.375,0,0,0,1.375-1.375v-5.5a1.375,1.375,0,0,0-1.375-1.375H22.342V12.03H26.81A.687.687,0,0,0,27.5,11.343ZM11,5.5V2.75h5.5V5.5ZM8.249,19.248H4.125V16.5H8.249Zm15.124,0H19.248V16.5h4.125Z"/></svg>