<svg xmlns="http://www.w3.org/2000/svg" width="19.854" height="22.69" viewBox="0 0 19.854 22.69"><defs><style>.a{fill:#c7c7c7;}</style></defs><path class="a" d="M17.726,0H2.127A2.128,2.128,0,0,0,0,2.127V20.563A2.128,2.128,0,0,0,2.127,22.69h15.6a2.128,2.128,0,0,0,2.127-2.127V2.127A2.128,2.128,0,0,0,17.726,0Zm-7.8,21.272a1.418,1.418,0,1,1,1.418-1.418A1.417,1.417,0,0,1,9.927,21.272Zm7.8-4.786a.533.533,0,0,1-.532.532H2.659a.533.533,0,0,1-.532-.532V2.659a.533.533,0,0,1,.532-.532H17.195a.533.533,0,0,1,.532.532Z"/></svg>