<svg xmlns="http://www.w3.org/2000/svg" xmlns:xlink="http://www.w3.org/1999/xlink" width="71.183" height="31.905" viewBox="0 0 71.183 31.905"><defs><style>.a{fill:url(#a);}</style><linearGradient id="a" x1="1.019" y1="0.203" x2="-0.07" y2="0.941" gradientUnits="objectBoundingBox"><stop offset="0.083" stop-color="#1afffc"/><stop offset="1" stop-color="#007fff"/></linearGradient></defs><path class="a" d="M404.547,1541.038a16.222,16.222,0,0,1-1.3-6.5c0-.087,0-.173,0-.26-.043-3.287-.188-6.884-1.612-9.9a15.887,15.887,0,0,0-6.7-7.162q-.4-.216-.808-.408a15.29,15.29,0,0,0-1.97-.762,16.35,16.35,0,0,0-12.536,1.388c-4.58,2.478-6.812,7.313-9.563,11.465-2.865,4.325-6.546,8.368-11.171,10.828a15.062,15.062,0,0,1-1.452.706,20,20,0,0,1-4.293,1.208,18.26,18.26,0,0,1-3.73.1,13.3,13.3,0,0,1-2.89-.792,10.385,10.385,0,0,1-6.221-8.163,10.535,10.535,0,0,1,16.18-10.322,6.752,6.752,0,0,1,1.181.895,20.547,20.547,0,0,1,1.76,1.979c.155.253.334.253-.569.253h-7.542a2.782,2.782,0,0,0-1.906.789,2.7,2.7,0,0,0,1.906,4.6h3.862c.891,0,1.777-.031,2.666-.019q1.6.022,3.207.02c1.4,0,2.883.067,4-.949,2.259-2.062.549-5.41-.906-7.4a17.773,17.773,0,0,0-7.607-5.982l-.1-.039a15.733,15.733,0,0,0-11.066-.207,15.915,15.915,0,0,0-7.9,23.544,16.576,16.576,0,0,0,14.885,7.146c10.928-.723,18.515-9.079,23.807-17.853,1.523-2.526,3-5.587,5.877-7.117a11.582,11.582,0,0,1,9.1-.694,10.1,10.1,0,0,1,2.826,1.6c4.451,3.577,4.988,10.493,1.493,14.936a10.632,10.632,0,0,1-11.35,3.516,11.373,11.373,0,0,1-4.422-2.67c-1.213-1.118-2.357-3.012-4.283-2.346a2.7,2.7,0,0,0-1.407,3.026,5.488,5.488,0,0,0,1.847,2.594,16.72,16.72,0,0,0,2.9,2.348,15.839,15.839,0,0,0,14.161,1.5c2.119-.792,5.137-2.276,6.21-4.407a16.8,16.8,0,0,0,1.339,3.31c.84,1.473,1.206,2.017,2.1,2.32a2.8,2.8,0,0,0,3.515-1.919C406.371,1543.57,405.135,1542.48,404.547,1541.038Zm-44.875-15.868-.255-.33C359.515,1524.967,359.607,1525.077,359.672,1525.17Z" transform="translate(-334.933 -1515.367)"/></svg>