<svg xmlns="http://www.w3.org/2000/svg" width="105.328" height="47.209" viewBox="0 0 105.328 47.209"><defs><style>.a{fill:#fff;}</style></defs><path class="a" d="M437.938,1553.352a24,24,0,0,1-1.923-9.621c0-.128,0-.256,0-.384-.064-4.864-.278-10.186-2.385-14.654a23.506,23.506,0,0,0-9.919-10.6q-.588-.32-1.2-.6a22.6,22.6,0,0,0-2.916-1.127,24.193,24.193,0,0,0-18.548,2.053c-6.777,3.667-10.08,10.821-14.15,16.965-4.239,6.4-9.687,12.383-16.529,16.021a22.273,22.273,0,0,1-2.149,1.045,29.6,29.6,0,0,1-6.352,1.788,27.016,27.016,0,0,1-5.519.153,19.676,19.676,0,0,1-4.276-1.172,15.366,15.366,0,0,1-9.205-12.079,15.588,15.588,0,0,1,23.94-15.272,10,10,0,0,1,1.747,1.324,30.394,30.394,0,0,1,2.6,2.929c.23.374.495.375-.842.375h-11.16a4.116,4.116,0,0,0-2.82,1.167,3.988,3.988,0,0,0,2.82,6.808l5.714,0c1.318,0,2.63-.045,3.945-.028q2.373.032,4.745.03c2.068,0,4.266.1,5.914-1.4,3.342-3.05.812-8.005-1.341-10.944a26.3,26.3,0,0,0-11.256-8.851l-.146-.057a23.279,23.279,0,0,0-16.374-.306,23.55,23.55,0,0,0-11.683,34.838c4.751,7.249,13.475,11.139,22.025,10.573,16.17-1.07,27.4-13.433,35.227-26.416,2.254-3.738,4.44-8.267,8.7-10.53a17.137,17.137,0,0,1,13.469-1.027,14.937,14.937,0,0,1,4.181,2.36c6.586,5.293,7.38,15.526,2.21,22.1a15.731,15.731,0,0,1-16.795,5.2,16.83,16.83,0,0,1-6.543-3.951c-1.795-1.654-3.487-4.458-6.338-3.472-1.741.6-2.363,2.816-2.082,4.477.264,1.56,1.674,2.767,2.733,3.838a24.727,24.727,0,0,0,4.3,3.475,23.437,23.437,0,0,0,20.953,2.216c3.136-1.171,7.6-3.368,9.188-6.521a24.857,24.857,0,0,0,1.981,4.9c1.242,2.18,1.785,2.985,3.111,3.432,1.767.6,4.754-.363,5.2-2.839S438.808,1555.485,437.938,1553.352Zm-66.4-23.479-.377-.489C371.306,1529.572,371.443,1529.734,371.538,1529.873Z" transform="translate(-334.933 -1515.366)"/></svg>