<svg xmlns="http://www.w3.org/2000/svg" width="11.968" height="14" viewBox="0 0 11.968 14"><defs><style>.a{fill:#fff;}</style></defs><g transform="translate(-0.016 0)"><path class="a" d="M3.817,14c-.908,0-1.592-.839-2.27-1.773A8.584,8.584,0,0,1,.122,8.853,5.3,5.3,0,0,1,.616,5.174a3.641,3.641,0,0,1,3.04-1.755h.038a4.259,4.259,0,0,1,1.478.36,2.9,2.9,0,0,0,.909.249,2.954,2.954,0,0,0,.88-.246,4.941,4.941,0,0,1,1.7-.407c.079,0,.158,0,.234.011a3.468,3.468,0,0,1,2.687,1.388l-.011.006A3.115,3.115,0,0,0,10,7.439a3.125,3.125,0,0,0,1.967,2.83l.005,0,0,.015a7.555,7.555,0,0,1-1.013,1.976c-.573.8-1.222,1.7-2.249,1.72H8.656a2.627,2.627,0,0,1-1.092-.262,3.053,3.053,0,0,0-1.289-.294,3.241,3.241,0,0,0-1.351.3A2.9,2.9,0,0,1,3.866,14Zm2.3-10.768c-.05,0-.1,0-.149-.005a2.839,2.839,0,0,1,.78-2.166A3.34,3.34,0,0,1,8.91,0a3,3,0,0,1-.765,2.236A2.828,2.828,0,0,1,6.114,3.232Z" transform="translate(0.016)"/></g></svg>