<svg xmlns="http://www.w3.org/2000/svg" xmlns:xlink="http://www.w3.org/1999/xlink" width="346" height="230" viewBox="0 0 346 230"><defs><style>.a{fill:#1d1d1b;}.b,.c{fill:#fff;}.b{font-size:16px;font-family:Roboto-Medium, Roboto;font-weight:500;}.d{filter:url(#a);}</style><filter id="a" x="0" y="0" width="346" height="230" filterUnits="userSpaceOnUse"><feOffset dx="20" dy="20" input="SourceAlpha"/><feGaussianBlur stdDeviation="30" result="b"/><feFlood flood-color="#020816" flood-opacity="0.4"/><feComposite operator="in" in2="b"/><feComposite in="SourceGraphic"/></filter></defs><g transform="translate(70 70)"><g class="d" transform="matrix(1, 0, 0, 1, -70, -70)"><rect class="a" width="166" height="50" rx="5" transform="translate(70 70)"/></g><text class="b" transform="translate(20 31)"><tspan x="0" y="0">Download App</tspan></text><g transform="translate(134 18)"><path class="c" d="M6.865,14a.845.845,0,0,1-.807-.876v-1.75H5.25v1.75A.845.845,0,0,1,4.442,14a.845.845,0,0,1-.808-.876v-1.75h-.4A1.266,1.266,0,0,1,2.02,10.063V5.25H9.289v4.813a1.267,1.267,0,0,1-1.212,1.312h-.4v1.75A.845.845,0,0,1,6.865,14ZM10.5,9.625a.844.844,0,0,1-.808-.875V5.25a.81.81,0,1,1,1.616,0v3.5A.844.844,0,0,1,10.5,9.625Zm-9.693,0A.844.844,0,0,1,0,8.75V5.25a.844.844,0,0,1,.807-.875.844.844,0,0,1,.808.875v3.5A.844.844,0,0,1,.807,9.625Zm8.458-5.25H2.041A3.942,3.942,0,0,1,4.157,1.224L3.646.16A.115.115,0,0,1,3.689.013.1.1,0,0,1,3.736,0a.1.1,0,0,1,.089.058l.519,1.08a3.383,3.383,0,0,1,2.619,0L7.483.059A.1.1,0,0,1,7.573,0a.1.1,0,0,1,.046.013A.113.113,0,0,1,7.662.16L7.15,1.224a3.943,3.943,0,0,1,2.115,3.15Zm-2-1.947a.612.612,0,0,0-.586.635.588.588,0,1,0,1.172,0A.612.612,0,0,0,7.269,2.428Zm-3.231,0a.612.612,0,0,0-.585.635.612.612,0,0,0,.585.635.612.612,0,0,0,.586-.635A.612.612,0,0,0,4.038,2.428Z" transform="translate(0 0)"/></g></g></svg>