<svg xmlns="http://www.w3.org/2000/svg" width="36.405" height="35" viewBox="0 0 36.405 35"><defs><style>.a{fill:#fff;opacity:0;}.b{fill:#2e2e2e;stroke:#fff;stroke-width:0.4px;}</style></defs><g transform="translate(-30.8 -10.04)"><g transform="translate(-118 -211.96)"><rect class="a" width="36.205" height="35" transform="translate(149 222)"/></g><g transform="translate(67 9.29) rotate(90)"><path class="b" d="M29.25,11.25v13.5A2.25,2.25,0,0,1,27,27H9a2.25,2.25,0,0,1-2.25-2.25V11.25A2.25,2.25,0,0,1,9,9H27A2.25,2.25,0,0,1,29.25,11.25ZM9,24.75H27V11.25H9Z"/><path class="b" d="M27,31.5V36H24.75V31.5H11.25V36H9V31.5a2.25,2.25,0,0,1,2.25-2.25h13.5A2.25,2.25,0,0,1,27,31.5Z"/><path class="b" d="M27,0V4.5a2.25,2.25,0,0,1-2.25,2.25H11.25A2.25,2.25,0,0,1,9,4.5V0h2.25V4.5h13.5V0Z"/></g></g></svg>