<svg xmlns="http://www.w3.org/2000/svg" xmlns:xlink="http://www.w3.org/1999/xlink" width="74.596" height="74.596" viewBox="0 0 74.596 74.596"><defs><style>.a{fill:#4c4c4c;opacity:0.8;}.b{fill:url(#a);}</style><linearGradient id="a" x1="0.5" x2="0.5" y2="1" gradientUnits="objectBoundingBox"><stop offset="0" stop-color="#fbcd4f"/><stop offset="0.502" stop-color="#f3c64d" stop-opacity="0.945"/><stop offset="1" stop-color="#6a6a6a" stop-opacity="0.149"/></linearGradient></defs><g transform="translate(-33.202 -521)"><rect class="a" width="74.596" height="74.596" rx="2" transform="translate(33.202 521)"/></g><path class="b" d="M27.7,33.75a1.125,1.125,0,0,1-.66-.211L18,26.983,8.957,33.539a1.125,1.125,0,0,1-1.726-1.271l3.527-10.447L1.617,15.553A1.125,1.125,0,0,1,2.25,13.5H13.527l3.4-10.473a1.125,1.125,0,0,1,2.14,0l3.4,10.477H33.75a1.125,1.125,0,0,1,.636,2.053l-9.144,6.264,3.525,10.444A1.125,1.125,0,0,1,27.7,33.75Z" transform="translate(19.095 19.297)"/></svg>