<svg xmlns="http://www.w3.org/2000/svg" width="40" height="50.001" viewBox="0 0 40 50.001"><defs><style>.a{fill:#fbcd4f;}</style></defs><g transform="translate(0)"><path class="a" d="M21.667,0H.833a.833.833,0,0,0,0,1.667H21.667a.833.833,0,1,0,0-1.667Z" transform="translate(10.833 20.833)"/><path class="a" d="M.833,1.667H9.167A.833.833,0,0,0,9.167,0H.833a.833.833,0,0,0,0,1.667Z" transform="translate(10.833 14.167)"/><path class="a" d="M21.667,0H.833a.833.833,0,0,0,0,1.667H21.667a.833.833,0,1,0,0-1.667Z" transform="translate(10.833 27.5)"/><path class="a" d="M21.667,0H.833a.833.833,0,0,0,0,1.667H21.667a.833.833,0,1,0,0-1.667Z" transform="translate(10.833 34.167)"/><path class="a" d="M21.667,0H.833a.833.833,0,0,0,0,1.667H21.667a.833.833,0,1,0,0-1.667Z" transform="translate(10.833 40.833)"/><path class="a" d="M40,50H4.167V45.833H0V0H35.834V12.155L40,16.322V50ZM5.833,5.833v42.5h32.5V17.5H26.667V5.833H5.833ZM1.667,1.667v42.5h2.5v-40H27.845l6.322,6.322V1.667ZM28.333,7.012h0v8.822h8.822l-1.321-1.322-7.5-7.5Z"/></g></svg>