<svg xmlns="http://www.w3.org/2000/svg" width="34.274" height="30.958" viewBox="0 0 34.274 30.958"><defs><style>.a{fill:#fff;}</style></defs><g transform="translate(-4 -4)"><path class="a" d="M18.373,23.9A1.106,1.106,0,0,1,19.479,22.8h8.845V6.211A2.211,2.211,0,0,0,26.113,4H11.6L4,11.585V32.746a2.211,2.211,0,0,0,2.211,2.211h19.9a2.211,2.211,0,0,0,2.211-2.211V25.007H19.479A1.106,1.106,0,0,1,18.373,23.9ZM12.845,12.845H6.211v-.354L12.5,6.211h.343Z" transform="translate(0 0)"/><path class="a" d="M29.671,16.375a1.106,1.106,0,0,0-1.559,1.559l3.593,3.582H26v2.211h5.738l-3.626,3.626a1.106,1.106,0,1,0,1.559,1.559l6.28-6.291Z" transform="translate(2.324 1.279)"/></g></svg>