<svg xmlns="http://www.w3.org/2000/svg" xmlns:xlink="http://www.w3.org/1999/xlink" width="35" height="35" viewBox="0 0 35 35"><defs><style>.a,.e{fill:none;}.a{stroke:#dedede;stroke-width:0.2px;}.b{fill:#fff;opacity:0;}.c{fill:#a0a0a0;stroke:#a0a0a0;stroke-width:0.3px;}.d{clip-path:url(#a);}.f,.g{stroke:none;}.g{fill:#a0a0a0;}</style><clipPath id="a"><path class="a" d="M145.188,1871.554a44.415,44.415,0,0,0,0,6.988H133.822v-24.216h34.525v24.216H157.405v-8.66S145.493,1867.74,145.188,1871.554Z" transform="translate(8.178 -1293)"/></clipPath></defs><g transform="translate(-1811 -814)"><g transform="translate(1666 592)"><rect class="b" width="35" height="35" transform="translate(145 222)"/></g><g transform="translate(1669 254.674)"><path class="c" d="M14.137,6.732V11.7h3.081a.616.616,0,0,1,.435,1.052L11.54,20.143a.616.616,0,0,1-.871,0L4.555,12.75A.616.616,0,0,1,4.991,11.7H8.072V6.732A1.233,1.233,0,0,1,9.3,5.5h3.6A1.234,1.234,0,0,1,14.137,6.732ZM11.1,18.836l4.626-5.906H12.905v-6.2H9.3v6.2H6.479Z" transform="translate(175.259 589.119) rotate(155)"/><g class="d"><g class="e" transform="translate(139 567.03)"><path class="f" d="M7,0H33.525a4,4,0,0,1,4,4v8.5a4,4,0,0,1-4,4H7a4,4,0,0,1-4-4V4A4,4,0,0,1,7,0Z"/><path class="g" d="M 7.000003814697266 1.699997901916504 C 5.731784820556641 1.699997901916504 4.700004577636719 2.731778144836426 4.700004577636719 3.999998092651367 L 4.700004577636719 12.50329780578613 C 4.700004577636719 13.77151775360107 5.731784820556641 14.803297996521 7.000003814697266 14.803297996521 L 33.52520370483398 14.803297996521 C 34.79342269897461 14.803297996521 35.82520294189453 13.77151775360107 35.82520294189453 12.50329780578613 L 35.82520294189453 3.999998092651367 C 35.82520294189453 2.731778144836426 34.79342269897461 1.699997901916504 33.52520370483398 1.699997901916504 L 7.000003814697266 1.699997901916504 M 7.000003814697266 -1.9073486328125e-06 L 33.52520370483398 -1.9073486328125e-06 C 35.73434448242188 -1.9073486328125e-06 37.52520370483398 1.790858268737793 37.52520370483398 3.999998092651367 L 37.52520370483398 12.50329780578613 C 37.52520370483398 14.71243762969971 35.73434448242188 16.50329780578613 33.52520370483398 16.50329780578613 L 7.000003814697266 16.50329780578613 C 4.790863037109375 16.50329780578613 3.000003814697266 14.71243762969971 3.000003814697266 12.50329780578613 L 3.000003814697266 3.999998092651367 C 3.000003814697266 1.790858268737793 4.790863037109375 -1.9073486328125e-06 7.000003814697266 -1.9073486328125e-06 Z"/></g></g></g></g></svg>