<svg xmlns="http://www.w3.org/2000/svg" xmlns:xlink="http://www.w3.org/1999/xlink" width="74.596" height="74.596" viewBox="0 0 74.596 74.596"><defs><style>.a,.b{fill:#fff;}.a{stroke:#707070;}.c{fill:#4c4c4c;}.d{clip-path:url(#a);}.e,.g,.i{fill:none;}.e{stroke:#fff;stroke-width:3px;}.f{clip-path:url(#b);}.h,.j{stroke:none;}.j{fill:#a0a0a0;}</style><clipPath id="a"><rect class="a" width="59" height="58" transform="translate(1445 271)"/></clipPath><clipPath id="b"><path class="b" d="M31.244-2.951l9.846,1.4L73.62,37.794H0Z" transform="translate(1498.944 248.058) rotate(45)"/></clipPath></defs><g transform="translate(-1436 -263.11)"><g transform="translate(1142.122 -342.009)"><rect class="c" width="74.596" height="74.596" rx="2" transform="translate(293.878 605.119)"/></g><g class="d"><g class="e" transform="translate(1449 275.408)"><rect class="h" width="50" height="50"/><rect class="i" x="1.5" y="1.5" width="47" height="47"/></g><g class="f" transform="translate(-23.927)"><g class="g" transform="translate(1472.927 275.408)"><path class="h" d="M0,0H50V50H0Z"/><path class="j" d="M 3 3 L 3 47 L 47 47 L 47 3 L 3 3 M 0 0 L 50 0 L 50 50 L 0 50 L 0 0 Z"/></g></g></g></g></svg>