<svg xmlns="http://www.w3.org/2000/svg" width="35" height="35" viewBox="0 0 35 35"><defs><style>.a{fill:#fff;opacity:0;}.b{fill:#2e2e2e;stroke:#2e2e2e;stroke-width:0.2px;}</style></defs><g transform="translate(-145 -222)"><rect class="a" width="35" height="35" transform="translate(145 222)"/><g transform="translate(146.897 225.02)"><path class="b" d="M27.593,4H3.706A1.629,1.629,0,0,0,2,5.538V23.99a1.629,1.629,0,0,0,1.706,1.538H27.593A1.629,1.629,0,0,0,29.3,23.99V5.538A1.629,1.629,0,0,0,27.593,4ZM3.706,23.99V5.538H27.593V23.99Z"/><path class="b" d="M20.148,15.335l-4.557,4.758-3.375-3.524a.819.819,0,0,0-1.19,0L5.92,21.97v2.494l5.73-5.983,2.776,2.855-3.164,3.3h2.321l7.131-7.445,5.527,5.745V20.455l-4.9-5.119a.819.819,0,0,0-1.19,0Z" transform="translate(-0.466 -2.025)"/></g></g></svg>