<svg xmlns="http://www.w3.org/2000/svg" xmlns:xlink="http://www.w3.org/1999/xlink" width="49.331" height="30.549" viewBox="0 0 49.331 30.549"><defs><style>.a,.d,.f{fill:none;}.a{stroke:#707070;}.b{fill:#2e2e2e;stroke-width:0.3px;}.b,.d{stroke:#2e2e2e;}.c{clip-path:url(#a);}.d{stroke-width:1.7px;}.e{stroke:none;}</style><clipPath id="a"><path class="a" d="M152.241,1872.232a24.266,24.266,0,0,0,0,6.309H133.822v-24.216h49.331v24.216H167.519v-8.66S152.678,1868.419,152.241,1872.232Z" transform="translate(0 -1293)"/></clipPath></defs><g transform="translate(-133.822 -561.326)"><path class="b" d="M14.137,6.732V11.7h3.081a.616.616,0,0,1,.435,1.052L11.54,20.143a.616.616,0,0,1-.871,0L4.555,12.75A.616.616,0,0,1,4.991,11.7H8.072V6.732A1.233,1.233,0,0,1,9.3,5.5h3.6A1.234,1.234,0,0,1,14.137,6.732ZM11.1,18.836l4.626-5.906H12.905v-6.2H9.3v6.2H6.479Z" transform="translate(175.259 589.119) rotate(155)"/><g class="c"><g class="d" transform="translate(139 567.03)"><rect class="e" width="40.525" height="16.503" rx="4"/><rect class="f" x="0.85" y="0.85" width="38.825" height="14.803" rx="3.15"/></g></g></g></svg>