<svg xmlns="http://www.w3.org/2000/svg" width="74.596" height="74.596" viewBox="0 0 74.596 74.596"><defs><style>.a{fill:#4c4c4c;opacity:0.8;}.b{fill:#fff3d1;}.c{fill:#fbcd4f;}</style></defs><g transform="translate(-1723.596 -211)"><g transform="translate(1690.394 -310)"><rect class="a" width="74.596" height="74.596" rx="2" transform="translate(33.202 521)"/></g><path class="b" d="M27.7,33.75a1.125,1.125,0,0,1-.66-.211L18,26.983,8.957,33.539a1.125,1.125,0,0,1-1.726-1.271l3.527-10.447L1.617,15.553A1.125,1.125,0,0,1,2.25,13.5H13.527l3.4-10.473a1.125,1.125,0,0,1,2.14,0l3.4,10.477H33.75a1.125,1.125,0,0,1,.636,2.053l-9.144,6.264,3.525,10.444A1.125,1.125,0,0,1,27.7,33.75Z" transform="translate(1743.469 230.75)"/><path class="c" d="M27.7,33.75a1.125,1.125,0,0,1-.66-.211L18,26.983,8.957,33.539a1.125,1.125,0,0,1-1.726-1.271l3.527-10.447L1.617,15.553A1.125,1.125,0,0,1,2.25,13.5H13.527l3.4-10.473a1.125,1.125,0,0,1,2.14,0l3.4,10.477H33.75a1.125,1.125,0,0,1,.636,2.053l-9.144,6.264,3.525,10.444A1.125,1.125,0,0,1,27.7,33.75Z" transform="translate(1740.392 228.75)"/></g></svg>