<svg xmlns="http://www.w3.org/2000/svg" width="35" height="35" viewBox="0 0 35 35"><defs><style>.a{fill:#fff;opacity:0;}.b{fill:#a0a0a0;stroke:#a0a0a0;stroke-width:0.4px;fill-rule:evenodd;}</style></defs><g transform="translate(-1709 -736.04)"><g transform="translate(1564 514.04)"><rect class="a" width="35" height="35" transform="translate(145 222)"/></g><g transform="translate(1711.221 740.541)"><path class="b" d="M27.805,5.863a.815.815,0,0,1,0,1.153l-11.4,11.4a.815.815,0,0,1-1.153,0l-4.887-4.887a.816.816,0,0,1,1.153-1.153l4.311,4.311L26.653,5.862a.815.815,0,0,1,1.153,0Z" transform="translate(-1.862 -0.62)"/><path class="b" d="M3.375,22.109a2.444,2.444,0,0,0,2.444,2.444h16.29a2.444,2.444,0,0,0,2.444-2.444V13.964a.815.815,0,0,0-1.629,0v8.145a.815.815,0,0,1-.815.815H5.819A.815.815,0,0,1,5,22.109V5.819A.815.815,0,0,1,5.819,5H18.851a.815.815,0,1,0,0-1.629H5.819A2.444,2.444,0,0,0,3.375,5.819Z"/></g></g></svg>