<svg xmlns="http://www.w3.org/2000/svg" width="35" height="35" viewBox="0 0 35 35"><defs><style>.a{fill:#fff;opacity:0;}.b{fill:#2e2e2e;}</style></defs><g transform="translate(-145 -222)"><rect class="a" width="35" height="35" transform="translate(145 222)"/><g transform="translate(147.487 224.633)"><path class="b" d="M6.8,7.489l-1.354-1.3-.017.016a13.215,13.215,0,0,0-.042,19.226l1.354-1.3A11.424,11.424,0,0,1,6.8,7.489Z" transform="translate(0 -0.01)"/><path class="b" d="M29.633,6.2l-.073-.068-1.354,1.3A11.429,11.429,0,0,1,28.3,24.154l1.354,1.3A13.22,13.22,0,0,0,29.633,6.2Z" transform="translate(-5.288 0)"/><path class="b" d="M10.336,10.8a7.7,7.7,0,0,0-.059,11.431l1.349-1.255a6.01,6.01,0,0,1,.059-8.921Z" transform="translate(-1.256 -0.707)"/><path class="b" d="M23.609,11.987a6.018,6.018,0,0,1,.089,9l1.35,1.256a7.706,7.706,0,0,0-.089-11.512Z" transform="translate(-4.319 -0.697)"/><path class="b" d="M19.724,15.043a3.336,3.336,0,1,0,1.054,2.432,3.336,3.336,0,0,0-1.054-2.432Zm-2.288,3.864a1.432,1.432,0,1,1,1.432-1.432A1.432,1.432,0,0,1,17.436,18.907Z" transform="translate(-2.549 -1.644)"/></g></g></svg>