<svg xmlns="http://www.w3.org/2000/svg" width="35" height="35" viewBox="0 0 35 35"><defs><style>.a{fill:#fff;opacity:0;}.b{fill:#a0a0a0;}</style></defs><g transform="translate(-1811 -346)"><g transform="translate(1666 124)"><rect class="a" width="35" height="35" transform="translate(145 222)"/></g><path class="b" d="M18.158,24.863l-2.582,2.561a4.2,4.2,0,0,1-5.9,0,4.114,4.114,0,0,1,0-5.825L14.6,16.718a4.2,4.2,0,0,1,5.9,0,4.051,4.051,0,0,1,1.05,1.795,2.1,2.1,0,0,0,.283-.283l1.354-1.343a6.182,6.182,0,0,0-1.207-1.7,6.3,6.3,0,0,0-8.858,0L8.187,20.109a6.2,6.2,0,0,0,0,8.806,6.3,6.3,0,0,0,8.859,0l3.831-3.8h-.525a8.4,8.4,0,0,1-2.194-.252Z" transform="translate(1809.563 345.27)"/><path class="b" d="M29.319,7.906a6.3,6.3,0,0,0-8.858,0l-3.831,3.8h.514a8.4,8.4,0,0,1,2.2.294L21.93,9.438a4.2,4.2,0,0,1,5.9,0,4.114,4.114,0,0,1,0,5.825l-4.923,4.881a4.2,4.2,0,0,1-5.9,0,4.051,4.051,0,0,1-1.05-1.795,2.1,2.1,0,0,0-.294.241L14.31,19.935a6.182,6.182,0,0,0,1.207,1.7,6.3,6.3,0,0,0,8.859,0L29.3,16.754a6.214,6.214,0,0,0,0-8.806Z" transform="translate(1809.957 344.909)"/></g></svg>