<svg xmlns="http://www.w3.org/2000/svg" width="21.092" height="21.092" viewBox="0 0 21.092 21.092"><defs><style>.a{fill:#2e2e2e;}.b{fill:none;stroke:#000;}</style></defs><g transform="translate(0 0)"><g transform="translate(0 0)"><path class="a" d="M15.75,14.625H27.8v1.507H15.75Z" transform="translate(-6.711 -6.339)"/><path class="a" d="M16.875,31.5h11.3v1.507h-11.3Z" transform="translate(-7.082 -11.915)"/><path class="a" d="M25.791,26.658h1.62l-3.284-7.533H22.409l-3.284,7.533h1.62l.6-1.507h3.841ZM21.95,23.645l1.318-3.292,1.318,3.292Z" transform="translate(-7.826 -7.826)"/><path class="a" d="M25.791,9.783h1.62L24.127,2.25H22.409L19.125,9.783h1.62l.6-1.507h3.841ZM21.95,6.77l1.318-3.292L24.586,6.77Z" transform="translate(-7.826 -2.25)"/><path class="a" d="M5.263,16.757,7.206,18.7l1.07-1.062L5.263,14.625,2.25,17.638l1.062,1.069Z" transform="translate(-2.25 -6.339)"/><path class="a" d="M5.263,29.6,3.32,27.66,2.25,28.722l3.013,3.013,3.013-3.013L7.214,27.653Z" transform="translate(-2.25 -10.644)"/></g><line class="b" y1="9.637" transform="translate(2.902 10.239)"/></g></svg>