<svg xmlns="http://www.w3.org/2000/svg" width="74.596" height="74.596" viewBox="0 0 74.596 74.596"><defs><style>.a{fill:#4c4c4c;opacity:0.8;}.b,.c{fill:#fbcd4f;}.c{fill-rule:evenodd;}</style></defs><g transform="translate(-1638 -323.947)"><g transform="translate(1432.798 -197.053)"><rect class="a" width="74.596" height="74.596" rx="2" transform="translate(205.202 521)"/></g><path class="b" d="M27.7,33.75a1.125,1.125,0,0,1-.66-.211L18,26.983,8.957,33.539a1.125,1.125,0,0,1-1.726-1.271l3.527-10.447L1.617,15.553A1.125,1.125,0,0,1,2.25,13.5H13.527l3.4-10.473a1.125,1.125,0,0,1,2.14,0l3.4,10.477H33.75a1.125,1.125,0,0,1,.636,2.053l-9.144,6.264,3.525,10.444A1.125,1.125,0,0,1,27.7,33.75Z" transform="translate(1657.125 341.697)"/><g transform="translate(-3728.504 -8258.976) rotate(49)"><path class="c" d="M17.748,22.661a.556.556,0,0,1,0,.788l-3.337,3.337a.556.556,0,0,1-.788,0l-3.337-3.337a.557.557,0,0,1,.788-.788l2.944,2.944,2.944-2.944a.556.556,0,0,1,.788,0Z" transform="translate(10032.5 1568.701)"/><path class="c" d="M17.431,13.5a.556.556,0,0,1,.556.556v7.23a.556.556,0,0,1-1.112,0v-7.23A.556.556,0,0,1,17.431,13.5Z" transform="translate(10029.086 1573.25)"/></g><g transform="translate(11162.848 -3295.841) rotate(150)"><path class="c" d="M17.748,22.661a.556.556,0,0,1,0,.788l-3.337,3.337a.556.556,0,0,1-.788,0l-3.337-3.337a.557.557,0,0,1,.788-.788l2.944,2.944,2.944-2.944a.556.556,0,0,1,.788,0Z" transform="translate(10032.5 1568.701)"/><path class="c" d="M17.431,13.5a.556.556,0,0,1,.556.556v7.23a.556.556,0,0,1-1.112,0v-7.23A.556.556,0,0,1,17.431,13.5Z" transform="translate(10029.086 1573.25)"/></g></g></svg>