<svg xmlns="http://www.w3.org/2000/svg" xmlns:xlink="http://www.w3.org/1999/xlink" width="21.454" height="22.906" viewBox="0 0 21.454 22.906"><defs><style>.a{fill:#fff;}.b{fill:#fbcd4f;}.c{isolation:isolate;}.d{clip-path:url(#a);}.e{clip-path:url(#b);}.f{clip-path:url(#c);}.g{clip-path:url(#d);}.h{clip-path:url(#e);}.i{clip-path:url(#f);}</style><clipPath id="a"><path class="a" d="M481.187,197.943l-8.7-5,5.74-2.556,8.7,5Z" transform="translate(-472.49 -190.391)"/></clipPath><clipPath id="b"><path class="a" d="M579.684,165.624l-8.6-4.988,4.058-1.892,8.6,4.988Z" transform="translate(-571.087 -158.743)"/></clipPath><clipPath id="c"><path class="a" d="M606.366,301.357l.049-11.707,5.632-2.4L612,298.957Z" transform="translate(-606.366 -287.25)"/></clipPath><clipPath id="d"><path class="a" d="M710.387,258.871l.056-11.738,4.806-2.172-.056,11.738Z" transform="translate(-710.387 -244.962)"/></clipPath><clipPath id="e"><path class="b" d="M468.079,261.893l.044-12.194,7.852,4.479-.044,12.194Z" transform="translate(-468.079 -249.699)"/></clipPath><clipPath id="f"><path class="a" d="M480.2,376.275l.069-3.2,5.9,3.332-.069,3.2Z" transform="translate(-480.198 -373.072)"/></clipPath></defs><g transform="translate(0.302 2.167)"><g transform="translate(0 0)"><g class="c"><g class="d"><g transform="translate(0.542 0.656)"><path class="a" d="M488.659,205.353a.43.43,0,0,1-.34-.039l-1.917-1.1c-.1-.059-.118-.138-.033-.175l1.974-.879a1.365,1.365,0,0,1,.58-.1,2.873,2.873,0,0,1,.712.107,2.994,2.994,0,0,1,.7.292,1.318,1.318,0,0,1,.443.377.444.444,0,0,1,.084.381.492.492,0,0,1-.3.291l-1.9.848m-3.638-2.078a.4.4,0,0,1-.313-.036l-1.848-1.061c-.1-.055-.109-.128-.031-.163l1.765-.786a1.313,1.313,0,0,1,.531-.1,2.548,2.548,0,0,1,.661.093,2.83,2.83,0,0,1,.682.284,1.411,1.411,0,0,1,.472.389.392.392,0,0,1,.074.355.484.484,0,0,1-.287.265l-1.705.759m-1.351-3.108L480.7,201.49c-.465.207-.382.64.185.966l6.641,3.815a2.372,2.372,0,0,0,1.871.216l2.6-1.157a2.109,2.109,0,0,0,.892-.659.777.777,0,0,0,.084-.806,2.087,2.087,0,0,0-.92-.845,5.583,5.583,0,0,0-1.777-.658,4.951,4.951,0,0,0-1.765-.026.7.7,0,0,0-.07-.818,2.774,2.774,0,0,0-.927-.8,5.726,5.726,0,0,0-1.255-.521,5.663,5.663,0,0,0-1.4-.228,2.684,2.684,0,0,0-1.192.2" transform="translate(-480.399 -199.965)"/></g></g></g></g></g><g transform="translate(7.053)"><g class="c"><g class="e"><g transform="translate(0.523 1.501)"><path class="a" d="M578.9,180.73c-.3.14-.2.459.235.721l6.537,3.936a2.112,2.112,0,0,0,1.618.277l3.063-1.279.017-.008c.264-.123.175-.4-.207-.633a1.6,1.6,0,0,0-1.221-.209l-2.57,1.073-6.062-3.65a1.82,1.82,0,0,0-1.393-.239l-.019.008" transform="translate(-578.723 -180.663)"/></g></g></g></g><g transform="translate(9.469 8.799)"><g class="c"><g class="f"><g transform="translate(0.006 1.157)"><path class="a" d="M608.037,314.427c-.167.071-.3-.112-.3-.41l.028-6.64a.766.766,0,0,1,.3-.667l.809-.345a1.039,1.039,0,0,1,1.054.037,1.906,1.906,0,0,1,.661,1.068,6.687,6.687,0,0,1,.223,1.9,9.25,9.25,0,0,1-.235,2.084,5.4,5.4,0,0,1-.668,1.667,2.377,2.377,0,0,1-1.068.957l-.809.345m.85-10.057-1.587.676a2.035,2.035,0,0,0-.809,1.772l-.037,8.847c0,.79.354,1.277.8,1.088l1.587-.676a4.071,4.071,0,0,0,1.721-1.457,7.957,7.957,0,0,0,1.134-2.524,12.676,12.676,0,0,0,.411-3.27,9.55,9.55,0,0,0-.349-2.789,2.889,2.889,0,0,0-1.075-1.649,1.822,1.822,0,0,0-1.794-.017" transform="translate(-606.454 -304.146)"/></g></g></g></g><g transform="translate(16.591 5.904)"><g transform="translate(0 0)"><g class="c"><g class="g"><g transform="translate(0.005 0.801)"><path class="a" d="M711.825,263.234c-.06.027-.107-.041-.106-.151l.016-3.4a.291.291,0,0,1,.108-.248l1.379-.623a.363.363,0,0,1,.413.061,1.165,1.165,0,0,1,.313.526,2.926,2.926,0,0,1,.12.927,4.633,4.633,0,0,1-.111,1.007,3.294,3.294,0,0,1-.288.815.938.938,0,0,1-.411.441l-1.432.647m1.487-6.462-2.18.985a1.663,1.663,0,0,0-.62,1.418l-.045,9.456c0,.63.269,1.017.609.863a1.664,1.664,0,0,0,.62-1.418l.013-2.669a.181.181,0,0,1,.068-.155l1.123-.508c.023-.01.045,0,.057.034l1.094,2.86c.1.271.29.381.491.29a1.748,1.748,0,0,0,.5-1.857l-.856-2.268a.23.23,0,0,1,.03-.192,4.552,4.552,0,0,0,.54-.977,6.977,6.977,0,0,0,.4-1.378,8.242,8.242,0,0,0,.145-1.492,5.948,5.948,0,0,0-.14-1.356,3.564,3.564,0,0,0-.412-1.067,1.464,1.464,0,0,0-.637-.6.948.948,0,0,0-.8.033" transform="translate(-710.467 -256.664)"/></g></g></g></g></g><g transform="translate(0 6.228)"><g transform="translate(0 0)"><g class="c"><g class="h"><g transform="translate(0.004 0.254)"><path class="b" d="M475.522,257.348l-6.833-3.9c-.282-.161-.512.224-.514.859l-.036,9.894a1.858,1.858,0,0,0,.506,1.441l6.833,3.9c.282.161.512-.224.514-.859l.036-9.894a1.857,1.857,0,0,0-.506-1.441" transform="translate(-468.14 -253.414)"/></g></g></g></g></g><g transform="translate(0.83 14.676)"><g transform="translate(0)"><g class="c"><g class="i"><g transform="translate(0.025 1.131)"><path class="a" d="M481.174,389.642a.309.309,0,0,0-.247-.043.361.361,0,0,0-.191.151.918.918,0,0,0-.125.306,2.045,2.045,0,0,0-.05.427,2.676,2.676,0,0,0,.032.471,2.439,2.439,0,0,0,.11.443,1.587,1.587,0,0,0,.18.362.739.739,0,0,0,.243.233.291.291,0,0,0,.321.015.533.533,0,0,0,.2-.317l-.275-.331a.23.23,0,0,1-.095.139.132.132,0,0,1-.143,0,.34.34,0,0,1-.112-.113.822.822,0,0,1-.09-.193,1.493,1.493,0,0,1-.058-.252,1.7,1.7,0,0,1-.017-.29,1.374,1.374,0,0,1,.028-.264.568.568,0,0,1,.066-.179.192.192,0,0,1,.1-.086.136.136,0,0,1,.116.015.366.366,0,0,1,.131.142.893.893,0,0,1,.092.247l.283-.016a1.866,1.866,0,0,0-.184-.528.814.814,0,0,0-.309-.337" transform="translate(-480.56 -389.588)"/><path class="a" d="M497.9,400.945a.343.343,0,0,1-.114-.114.815.815,0,0,1-.089-.193,1.444,1.444,0,0,1-.057-.249,1.728,1.728,0,0,1-.017-.288,1.314,1.314,0,0,1,.029-.26.6.6,0,0,1,.066-.182.2.2,0,0,1,.1-.09.128.128,0,0,1,.116.012.346.346,0,0,1,.114.115.828.828,0,0,1,.089.193,1.436,1.436,0,0,1,.057.252,1.749,1.749,0,0,1,.016.285,1.35,1.35,0,0,1-.028.264.6.6,0,0,1-.066.181.193.193,0,0,1-.1.089.136.136,0,0,1-.116-.015m.04-1.857a.31.31,0,0,0-.247-.043.354.354,0,0,0-.19.154.958.958,0,0,0-.124.309,2.039,2.039,0,0,0-.05.427,2.715,2.715,0,0,0,.031.469,2.43,2.43,0,0,0,.108.44,1.568,1.568,0,0,0,.179.362.739.739,0,0,0,.243.233.313.313,0,0,0,.247.043.352.352,0,0,0,.189-.154.983.983,0,0,0,.123-.309,2.026,2.026,0,0,0,.05-.423,2.745,2.745,0,0,0-.031-.473,2.436,2.436,0,0,0-.108-.44,1.575,1.575,0,0,0-.178-.361.727.727,0,0,0-.242-.233" transform="translate(-496.177 -398.388)"/><path class="a" d="M516.178,402.613a.368.368,0,0,1-.123-.122.852.852,0,0,1-.094-.2,1.462,1.462,0,0,1-.059-.248,1.573,1.573,0,0,1-.018-.277,1.337,1.337,0,0,1,.027-.247.716.716,0,0,1,.065-.189.214.214,0,0,1,.1-.1.125.125,0,0,1,.12.01.288.288,0,0,1,.085.083.874.874,0,0,1,.081.14,1.252,1.252,0,0,1,.068.178,1.392,1.392,0,0,1,.044.2l-.012.541a.449.449,0,0,1-.047.127.311.311,0,0,1-.068.085.149.149,0,0,1-.08.036.141.141,0,0,1-.084-.019m.615-2.4-.286-.161-.028,1.29a1.563,1.563,0,0,0-.148-.4.6.6,0,0,0-.22-.247.224.224,0,0,0-.2-.022.354.354,0,0,0-.163.162,1.134,1.134,0,0,0-.111.314,2.278,2.278,0,0,0-.047.438,2.888,2.888,0,0,0,.029.483,2.56,2.56,0,0,0,.1.436,1.5,1.5,0,0,0,.163.346.632.632,0,0,0,.211.211.23.23,0,0,0,.223.014.384.384,0,0,0,.174-.232l0,.146a.608.608,0,0,0,.051.235.305.305,0,0,0,.124.149.369.369,0,0,0,.122.039l.011-.493a.129.129,0,0,1-.05-.073.475.475,0,0,1-.012-.138l.054-2.493" transform="translate(-513.189 -399.339)"/><path class="a" d="M535.3,421.2a.932.932,0,0,1,.034-.213.433.433,0,0,1,.067-.142.171.171,0,0,1,.091-.065.147.147,0,0,1,.109.02.5.5,0,0,1,.2.266,1.332,1.332,0,0,1,.084.461l-.579-.327m.313-.818a.314.314,0,0,0-.248-.043.353.353,0,0,0-.192.152.936.936,0,0,0-.125.311,2.1,2.1,0,0,0-.05.434,2.671,2.671,0,0,0,.032.47,2.359,2.359,0,0,0,.11.439,1.545,1.545,0,0,0,.18.357.735.735,0,0,0,.241.23.3.3,0,0,0,.327.016.545.545,0,0,0,.206-.316l-.242-.277a.241.241,0,0,1-.108.165.159.159,0,0,1-.163-.006.35.35,0,0,1-.106-.1.744.744,0,0,1-.089-.164,1.188,1.188,0,0,1-.062-.215,1.541,1.541,0,0,1-.027-.256l.863.487a.782.782,0,0,0,.007-.083c0-.034,0-.07,0-.108a2.724,2.724,0,0,0-.03-.463,2.312,2.312,0,0,0-.107-.437,1.59,1.59,0,0,0-.178-.359.725.725,0,0,0-.242-.233" transform="translate(-531.272 -418.222)"/><path class="a" d="M553.1,429.54a.3.3,0,0,0-.175-.046.221.221,0,0,0-.143.07.443.443,0,0,0-.1.184,1.113,1.113,0,0,0-.04.293,1.166,1.166,0,0,0,.017.235.83.83,0,0,0,.065.2,1.072,1.072,0,0,0,.121.2q.075.1.183.221a2.138,2.138,0,0,1,.185.236.368.368,0,0,1,.054.21.2.2,0,0,1-.053.158c-.034.025-.079.021-.136-.011a.635.635,0,0,1-.191-.184,2.211,2.211,0,0,1-.194-.335l-.114.3a1.613,1.613,0,0,0,.224.389.956.956,0,0,0,.273.246q.209.118.334-.006a.663.663,0,0,0,.133-.457,1.236,1.236,0,0,0-.019-.258.944.944,0,0,0-.073-.223,1.229,1.229,0,0,0-.131-.214c-.054-.072-.119-.149-.195-.233-.041-.043-.075-.082-.1-.117a.742.742,0,0,1-.066-.1.337.337,0,0,1-.036-.09.424.424,0,0,1-.01-.106c0-.09.02-.145.053-.168a.114.114,0,0,1,.123.008.54.54,0,0,1,.157.15,1.67,1.67,0,0,1,.161.283l.122-.285a1.421,1.421,0,0,0-.2-.352.816.816,0,0,0-.234-.206" transform="translate(-547.646 -426.761)"/></g></g></g></g></g></svg>