<svg xmlns="http://www.w3.org/2000/svg" width="36.205" height="35" viewBox="0 0 36.205 35"><defs><style>.a{fill:#fff;opacity:0;}.b{fill:#a0a0a0;}</style></defs><g transform="translate(-1810 -736.04)"><g transform="translate(1661 514.04)"><rect class="a" width="36.205" height="35" transform="translate(149 222)"/></g><path class="b" d="M13.755,8.566a5.191,5.191,0,1,0,5.191,5.191A5.206,5.206,0,0,0,13.755,8.566Zm0-5.191a10.38,10.38,0,1,0,10.38,10.38A10.411,10.411,0,0,0,13.755,3.375Zm0,18.685a8.3,8.3,0,1,1,8.3-8.3A8.329,8.329,0,0,1,13.755,22.06Z" transform="translate(1814.245 740.244)"/></g></svg>