<svg xmlns="http://www.w3.org/2000/svg" width="35" height="35" viewBox="0 0 35 35"><defs><style>.a{fill:#fff;opacity:0;}.b{fill:#2e2e2e;fill-rule:evenodd;}</style></defs><g transform="translate(-32 -10.04)"><g transform="translate(-113 -211.96)"><rect class="a" width="35" height="35" transform="translate(145 222)"/></g><g transform="translate(35.997 12.9)"><path class="b" d="M4.964,25.975A.919.919,0,0,0,6.256,27l7.6-3.907L21.458,27a.919.919,0,0,0,1.292-1.025l-1.437-8.191,6.1-5.812a.963.963,0,0,0-.49-1.645L18.443,9.123,14.659,1.63a.888.888,0,0,0-1.605,0L9.272,9.125.79,10.33A.963.963,0,0,0,.3,11.975l6.1,5.812L4.964,25.978Zm8.494-4.792L7.075,24.462l1.2-6.852a.978.978,0,0,0-.282-.874l-5.032-4.8,7.017-1a.909.909,0,0,0,.68-.5l3.2-6.334,3.2,6.334a.909.909,0,0,0,.68.5l7.017,1-5.032,4.8a.977.977,0,0,0-.282.877l1.2,6.852-6.383-3.279a.871.871,0,0,0-.8,0Z" transform="translate(0)"/></g></g></svg>