<svg xmlns="http://www.w3.org/2000/svg" width="17.249" height="17.249" viewBox="0 0 17.249 17.249"><defs><style>.a{fill:#c7c7c7;}</style></defs><path class="a" d="M17.811,9.171A8.625,8.625,0,0,1,3.774,15.9a.834.834,0,0,1-.064-1.238l.392-.392A.836.836,0,0,1,5.211,14.2,6.4,6.4,0,1,0,4.8,4.525L6.568,6.29a.556.556,0,0,1-.393.95H1.119a.556.556,0,0,1-.556-.556V1.628a.556.556,0,0,1,.95-.393L3.229,2.951a8.624,8.624,0,0,1,14.582,6.22ZM11.52,11.91l.342-.439a.835.835,0,0,0-.146-1.171L10.3,9.2V5.96a.835.835,0,0,0-.835-.835H8.909a.835.835,0,0,0-.835.835v4.328l2.275,1.769a.835.835,0,0,0,1.171-.146Z" transform="translate(-0.563 -0.563)"/></svg>