<svg xmlns="http://www.w3.org/2000/svg" width="24.656" height="24.656" viewBox="0 0 24.656 24.656"><defs><style>.a{fill:#d69e02;}</style></defs><path class="a" d="M9.477,11.6H2.127A2.13,2.13,0,0,1,0,9.477V2.127A2.13,2.13,0,0,1,2.127,0H9.477A2.13,2.13,0,0,1,11.6,2.127V9.477A2.13,2.13,0,0,1,9.477,11.6ZM5.8,1.981A3.82,3.82,0,1,0,9.621,5.8,3.825,3.825,0,0,0,5.8,1.981ZM9.745.965a.9.9,0,1,0,.9.9A.9.9,0,0,0,9.745.965Z" transform="translate(6.527 6.56)"/><path class="a" d="M2.206,0A2.206,2.206,0,1,0,4.411,2.205,2.208,2.208,0,0,0,2.206,0Z" transform="translate(10.122 10.156)"/><path class="a" d="M12.328,24.656A12.328,12.328,0,1,1,24.656,12.328,12.342,12.342,0,0,1,12.328,24.656ZM8.654,4.945A3.746,3.746,0,0,0,4.913,8.687v7.349a3.746,3.746,0,0,0,3.741,3.741H16a3.746,3.746,0,0,0,3.741-3.741V8.687A3.746,3.746,0,0,0,16,4.945Z" transform="translate(0 0)"/></svg>