<svg xmlns="http://www.w3.org/2000/svg" width="19.392" height="19.392" viewBox="0 0 19.392 19.392"><defs><style>.a{fill:#bfc4ce;}</style></defs><path class="a" d="M7.453,9.126H1.673A1.675,1.675,0,0,1,0,7.453V1.673A1.675,1.675,0,0,1,1.673,0h5.78A1.675,1.675,0,0,1,9.126,1.673v5.78A1.675,1.675,0,0,1,7.453,9.126ZM4.563,1.558a3,3,0,1,0,3,3A3.008,3.008,0,0,0,4.563,1.558Zm3.1-.8a.711.711,0,1,0,.711.711A.712.712,0,0,0,7.664.759Z" transform="translate(5.133 5.159)"/><path class="a" d="M1.735,0A1.735,1.735,0,1,0,3.47,1.734,1.737,1.737,0,0,0,1.735,0Z" transform="translate(7.961 7.988)"/><path class="a" d="M9.7,19.392a9.7,9.7,0,1,1,9.7-9.7A9.707,9.707,0,0,1,9.7,19.392ZM6.807,3.889A2.946,2.946,0,0,0,3.864,6.832v5.78a2.946,2.946,0,0,0,2.943,2.943h5.779a2.946,2.946,0,0,0,2.943-2.943V6.832a2.946,2.946,0,0,0-2.943-2.943Z" transform="translate(0)"/></svg>