<svg xmlns="http://www.w3.org/2000/svg" width="23.98" height="23.83" viewBox="0 0 23.98 23.83"><defs><style>.a{fill:#a0a0a0;}</style></defs><g transform="translate(-6.353 -6.085)"><path class="a" d="M17.6,24.32l-2.46,2.44a4,4,0,0,1-5.62,0,3.92,3.92,0,0,1,0-5.55l4.69-4.65a4,4,0,0,1,5.62,0,3.86,3.86,0,0,1,1,1.71A2,2,0,0,0,21.1,18l1.29-1.28a5.89,5.89,0,0,0-1.15-1.62,6,6,0,0,0-8.44,0L8.1,19.79a5.91,5.91,0,0,0,0,8.39,6,6,0,0,0,8.44,0l3.65-3.62h-.5a8,8,0,0,1-2.09-.24Z"/><path class="a" d="M28.61,7.82a6,6,0,0,0-8.44,0l-3.65,3.62h.49a8,8,0,0,1,2.1.28l2.46-2.44a4,4,0,0,1,5.62,0,3.92,3.92,0,0,1,0,5.55L22.5,19.48a4,4,0,0,1-5.62,0,3.86,3.86,0,0,1-1-1.71,2,2,0,0,0-.28.23l-1.29,1.28a5.89,5.89,0,0,0,1.15,1.62,6,6,0,0,0,8.44,0l4.69-4.65a5.92,5.92,0,0,0,0-8.39Z"/></g></svg>