<svg xmlns="http://www.w3.org/2000/svg" width="14.181" height="22.69" viewBox="0 0 14.181 22.69"><defs><style>.a{fill:#565860;}</style></defs><path class="a" d="M2.127,0h9.927a2.128,2.128,0,0,1,2.127,2.127V20.563a2.128,2.128,0,0,1-2.127,2.127H2.127A2.128,2.128,0,0,1,0,20.563V2.127A2.128,2.128,0,0,1,2.127,0ZM7.091,21.272a1.418,1.418,0,1,0-1.418-1.418A1.417,1.417,0,0,0,7.091,21.272ZM2.127,16.486a.533.533,0,0,0,.532.532h8.863a.533.533,0,0,0,.532-.532V2.659a.533.533,0,0,0-.532-.532H2.659a.533.533,0,0,0-.532.532Z"/></svg>