<svg xmlns="http://www.w3.org/2000/svg" width="36.205" height="35" viewBox="0 0 36.205 35"><defs><style>.a{fill:#fff;opacity:0;}.b{fill:#2e2e2e;}</style></defs><g transform="translate(-31 -10.04)"><g transform="translate(-118 -211.96)"><rect class="a" width="36.205" height="35" transform="translate(149 222)"/></g><g transform="translate(33 10.737)"><path class="b" d="M21.046,24.6a.907.907,0,0,1-.907.907H7.442c-.2,0-.39.181-.553.3L3.814,28.232V13.721a.907.907,0,0,1,.907-.907h3.5V11h-3.5A2.721,2.721,0,0,0,2,13.721V30.046a.886.886,0,0,0,1.415.716l4.671-3.437H20.275a2.512,2.512,0,0,0,2.585-2.6V23.7H21.046Z" transform="translate(0 -0.651)"/><path class="b" d="M29.139,4H13.721A2.721,2.721,0,0,0,11,6.721V17.6a2.721,2.721,0,0,0,2.721,2.721H26.01l4.335,3.365a.887.887,0,0,0,1.424-.716V6.721A2.721,2.721,0,0,0,29.139,4Zm.907,17.177L26.871,18.7a.907.907,0,0,0-.553-.19h-12.6a.907.907,0,0,1-.907-.907V6.721a.907.907,0,0,1,.907-.907H29.139a1,1,0,0,1,.907.961Z" transform="translate(-0.838)"/></g></g></svg>