<svg xmlns="http://www.w3.org/2000/svg" width="19.854" height="22.69" viewBox="0 0 19.854 22.69"><defs><style>.a{fill:#c7c7c7;opacity:0.4;}</style></defs><path class="a" d="M2.127,0h15.6a2.128,2.128,0,0,1,2.127,2.127V20.563a2.128,2.128,0,0,1-2.127,2.127H2.127A2.128,2.128,0,0,1,0,20.563V2.127A2.128,2.128,0,0,1,2.127,0Zm7.8,21.272a1.418,1.418,0,1,0-1.418-1.418A1.417,1.417,0,0,0,9.927,21.272Zm-7.8-4.786a.533.533,0,0,0,.532.532H17.195a.533.533,0,0,0,.532-.532V2.659a.533.533,0,0,0-.532-.532H2.659a.533.533,0,0,0-.532.532Z"/></svg>