<svg xmlns="http://www.w3.org/2000/svg" width="27.185" height="27.168" viewBox="0 0 27.185 27.168"><defs><style>.a{fill:#2e2e2e;}</style></defs><path class="a" d="M27.908,15.219,14.349,1.659a1.812,1.812,0,0,0-1.29-.534h-9.2A2.739,2.739,0,0,0,1.125,3.861v9.181A1.83,1.83,0,0,0,1.7,14.372l14.424,13.55a1.357,1.357,0,0,0,.935.371h.051a1.358,1.358,0,0,0,.957-.441l9.879-10.739a1.364,1.364,0,0,0-.04-1.894ZM17.037,26.277,2.949,13.042V3.861a.913.913,0,0,1,.912-.912h9.2L26.309,16.2Z" transform="translate(-1.125 -1.125)"/><path class="a" d="M9.714,6.75a2.964,2.964,0,1,0,2.964,2.964A2.964,2.964,0,0,0,9.714,6.75Zm0,4.1a1.14,1.14,0,1,1,1.14-1.14,1.14,1.14,0,0,1-1.14,1.14Z" transform="translate(-2.19 -2.19)"/></svg>