<svg xmlns="http://www.w3.org/2000/svg" width="24.547" height="24.547" viewBox="0 0 24.547 24.547"><defs><style>.a{fill:#d69e02;}.b{fill:#fff;}</style></defs><circle class="a" cx="12.274" cy="12.274" r="12.274"/><path class="b" d="M7.885,9.156h.963a.813.813,0,0,0,.44-.192A.7.7,0,0,0,9.42,8.54S9.4,7.248,10,7.057s1.351,1.249,2.156,1.8a1.526,1.526,0,0,0,1.071.326l2.152-.03s1.126-.069.592-.955a7.192,7.192,0,0,0-1.6-1.852C13.023,5.1,13.2,5.3,14.829,3.133c.99-1.32,1.386-2.125,1.262-2.47-.118-.329-.846-.242-.846-.242L12.822.436a.55.55,0,0,0-.313.055.679.679,0,0,0-.214.26,14.032,14.032,0,0,1-.9,1.889C10.321,4.473,9.89,4.57,9.713,4.456c-.41-.265-.308-1.065-.308-1.634,0-1.776.269-2.516-.524-2.708A4.138,4.138,0,0,0,7.75,0,5.223,5.223,0,0,0,5.739.208c-.276.135-.488.436-.359.453a1.088,1.088,0,0,1,.715.36,2.338,2.338,0,0,1,.24,1.1S6.478,4.207,6,4.467c-.327.178-.775-.186-1.737-1.848A15.453,15.453,0,0,1,3.4.826a.72.72,0,0,0-.2-.27,1,1,0,0,0-.372-.15L.525.421S.18.431.053.581C-.06.715.044.991.044.991A26.2,26.2,0,0,0,3.888,7.335a5.529,5.529,0,0,0,4,1.821Z" transform="translate(3.925 8.501)"/></svg>